<svg width="765" height="653" viewBox="0 0 765 653" fill="none" xmlns="http://www.w3.org/2000/svg">
<g id="ab5_floor_no_1-01 1" clip-path="url(#clip0_0_4)">
<path id="Vector" d="M-40 698C-40 462.75 -40 227.5 -40 -7.75C-40 -9.625 -39.625 -10 -37.75 -10C242.375 -10 522.625 -10 802.75 -10C804.625 -10 805 -9.625 805 -7.75C805 226.75 805 461.25 805 695.875C805 697.75 804.625 698.125 802.75 698.125C521.875 698 241 698 -40 698ZM272.625 607.5C293.125 607.5 313.625 607.5 334.25 607.5C337.375 607.5 337.5 607.5 337.375 610.75C337 630.625 336.75 650.625 336.375 670.5C336.25 674.75 336.625 675.125 340.875 675.125C356 675.25 371.125 675.375 386.25 675.5C393.375 675.5 400.375 675.625 407.5 675.75C409.375 675.75 410.125 675.25 410.25 673.125C411 665 410.5 656.875 410.625 648.75C410.875 636.5 411 624.375 411.125 612.125C411.125 608.5 411.25 608.5 414.75 608.5C454.25 608.5 493.75 608.5 533.25 608.5C537.375 608.5 537.375 608.5 537.75 604.375C537.875 602.625 538.375 602 540.25 602C547.625 602 555 601.625 562.5 601.625C564.75 601.625 565.125 600.875 565.125 598.875C565 584.25 565.125 569.75 565 555.125C565 553.375 565.25 552.75 567.25 552.75C571.75 552.875 576.25 552.875 580.625 552.75C582 552.75 582.875 553.125 583.75 554C599.25 570.5 614.75 586.875 630.25 603.5C643.625 617.875 657.375 632.125 671 646.375C671.875 647.375 672.375 647.5 673.375 646.5C680.375 639.125 687.375 631.75 694.375 624.375C710.5 607.5 726.625 590.5 742.75 573.75C744.375 572 744.5 571.125 742.75 569.375C726.5 552.375 710.5 535.375 694.375 518.375C693.25 517.25 693.5 516.625 694.375 515.625C698.5 511.125 702.5 506.5 706.625 502C707.75 500.875 707.5 500.25 706.625 499.25C701.125 493.5 695.625 487.625 690.25 481.875C684.25 475.5 678.375 469.125 672.375 462.875C671.125 461.625 670.75 460.625 671.875 458.75C675 454.125 677.875 449.25 680.75 444.5C681.5 443.125 682.125 442.875 683.375 443.875C683.875 444.25 684.375 444.5 684.75 444.75C688.25 446.875 688.25 446.875 686.5 450.625C686.25 451.25 685.375 452.125 685.875 452.5C687.375 453.5 689 454.625 690.875 455C692.125 455.25 692.375 453.5 692.875 452.625C700.625 438.25 707.75 423.625 712.625 408C717.75 391.875 720.875 375.5 722.5 358.625C724.25 340 723.75 321.625 721.25 303.125C718.375 281.75 712 261.375 703.625 241.5C698.875 230.125 693.5 219.25 686.625 209C686.25 208.375 685.75 207.125 685 207.375C683.5 208 682.125 209 681 210.125C680.25 210.875 681.375 211.875 681.75 212.75C683.75 217.125 683.75 217 679.625 219.375C678.25 220.125 677.625 220.125 676.75 218.75C673.75 214.125 670.75 209.5 667.625 204.875C666.25 202.875 666.625 201.75 668.25 200.125C678.875 189.625 689.375 179.125 699.875 168.625C702.375 166.125 702.375 165.125 699.875 162.5C696 158.5 692.125 154.625 688.125 150.75C686.875 149.5 686.875 148.75 688.25 147.5C699.375 136.625 710.375 125.625 721.375 114.625C722.25 113.75 722.875 113.25 721.625 112C701.5 91.375 681.375 70.75 661.375 50C659.875 48.5 659 48.375 657.5 50C640.625 66.875 623.625 83.625 606.75 100.375C598.375 108.625 590.125 116.875 581.875 125.25C580.5 126.625 579.25 127.25 577.25 127.25C573.5 127.125 569.75 127.125 566 127.25C564 127.375 563.375 126.875 563.375 124.75C563.5 111.625 563.375 98.5 563.5 85.375C563.5 83.5 563 83.125 561.25 83.125C554.75 83 548.25 82.5 541.75 82.25C536.625 82 536.625 82.125 536.625 77C536.625 75.5 536.375 75 534.625 74.875C520 74.625 505.375 74.25 490.625 74C451.375 73.125 412 72.375 372.75 71.5C325 70.5 277.375 69.5 229.625 68.625C228 68.625 226 68 224.875 68.75C223.5 69.625 224.25 71.875 224 73.5C223.75 75.125 223.375 75.625 221.625 75.625C214.25 75.5 207 75.625 199.625 75.5C197.875 75.5 197.25 75.875 197.25 77.75C197 90.625 196.625 103.5 196.375 116.375C196.375 118 196 118.375 194.375 118.375C190.5 118.25 186.5 118.25 182.625 118.375C181.375 118.375 180.5 117.875 179.75 117C168.25 105.125 156.75 93.25 145.25 81.375C132 67.75 118.75 54.125 105.625 40.5C101.625 36.375 101.875 36.375 97.75 40.25C83.25 53.875 69.25 67.125 55.125 80.5C49 86.25 43 92 36.875 97.75C35.25 99.25 35.125 100.625 36.625 102.25C37.875 103.625 39.125 105 40.5 106.375C50 116.375 59.5 126.5 69.125 136.375C70.375 137.625 70.375 138.5 69 139.625C65.5 142.875 62 146.25 58.5 149.5C57 151 54.25 152.5 54.375 153.875C54.5 155.625 56.875 157.25 58.375 158.75C68.5 169.5 78.625 180.375 88.875 191.125C89.625 191.875 90 192.5 89.125 193.5C85.375 197.875 82.125 202.625 79.125 207.625C77.875 209.625 76.875 210 74.875 208.625C71.375 206.25 71.25 206.375 73.375 202.5C73.625 202.125 73.75 201.625 74 201.25C74.875 200.125 74.5 199.375 73.375 198.75C72.875 198.5 72.375 198.25 72 197.875C70.625 196.625 69.75 196.75 68.625 198.5C57.25 215.25 48.5 233.375 41.875 252.375C34.375 273.875 30.125 296.125 28.875 318.875C28.375 326.75 27.875 334.75 28.5 342.5C29.5 355.875 31.25 369.25 34.25 382.25C35.625 388.375 36.75 394.5 38.5 400.5C40.125 406.125 42.5 411.5 44.5 417C48 427 52.625 436.625 57.625 446C58.25 447.25 58.875 449.25 61.125 448C64 446.5 64.625 445.75 63.875 443.5C63.375 441.875 61.25 440.25 62.125 438.875C62.875 437.5 65.125 437.125 66.625 436.125C67.875 435.25 68.625 435.25 69.375 436.75C72 442 75.125 447.125 78.375 452.125C79.375 453.625 79 454.25 77.875 455.375C73.125 459.875 68.5 464.625 63.75 469.125C56.25 476.125 49.25 483.625 42.125 491C39.625 493.625 39.625 493.75 42.125 496.5C45.875 500.625 49.5 504.75 53.25 508.875C54.125 509.875 54.875 510.625 53.375 512C43.75 521.25 34.25 530.625 24.75 540C17.625 547 10.5 554.125 3.375 561.125C1.75 562.75 1.75 563.75 3.375 565.5C9.875 572.5 16.125 579.625 22.5 586.625C38.875 604.625 55.125 622.625 71.5 640.75C72.625 642 73.25 642.125 74.5 640.875C85.875 629.5 97.375 618.125 108.75 606.75C127.375 588.25 146 569.625 164.625 551.125C165.625 550.125 166.625 549.75 168 549.75C172.125 549.875 176.125 549.875 180.25 549.75C182.5 549.625 183.125 550.375 183 552.5C182.125 567.5 181 582.375 180.75 597.375C180.75 599.25 181.125 599.75 183 599.75C190.125 599.75 197.125 599.875 204.25 600C208.75 600 208.875 600 208.75 604.5C208.625 606.625 209.125 607.25 211.375 607.25C231.375 607.5 252 607.5 272.625 607.5Z" fill="#FEFEFE"/>
<path id="Vector_2" d="M272.625 607.5C252 607.5 231.375 607.5 210.875 607.5C208.625 607.5 208.125 606.875 208.25 604.75C208.375 600.25 208.25 600.25 203.75 600.25C196.625 600.125 189.625 600 182.5 600C180.75 600 180.25 599.5 180.25 597.625C180.5 582.625 181.625 567.75 182.5 552.75C182.625 550.5 182.125 549.875 179.75 550C175.75 550.25 171.625 550.125 167.5 550C166.125 550 165.125 550.375 164.125 551.375C145.5 570 126.875 588.5 108.25 607C96.875 618.375 85.375 629.75 74 641.125C72.75 642.375 72.125 642.25 71 641C54.75 622.875 38.375 604.875 22 586.875C15.625 579.875 9.375 572.625 2.875 565.75C1.25 564 1.25 562.875 2.875 561.375C10 554.375 17.125 547.375 24.25 540.25C33.75 530.875 43.25 521.5 52.875 512.25C54.375 510.875 53.625 510.125 52.75 509.125C49 505 45.375 500.875 41.625 496.75C39.125 494 39.125 493.75 41.625 491.25C48.75 483.875 55.875 476.5 63.25 469.375C68 464.875 72.625 460.125 77.375 455.625C78.5 454.625 78.75 453.875 77.875 452.375C74.625 447.375 71.625 442.375 68.875 437C68.125 435.5 67.375 435.5 66.125 436.375C64.625 437.375 62.375 437.75 61.625 439.125C60.75 440.625 62.75 442.125 63.375 443.75C64.125 446 63.5 446.875 60.625 448.25C58.25 449.375 57.75 447.5 57.125 446.25C52.125 436.875 47.625 427.25 44 417.25C42.125 411.75 39.625 406.375 38 400.75C36.25 394.75 35.125 388.625 33.75 382.5C30.75 369.375 29 356.125 28 342.75C27.5 334.875 28 327 28.375 319.125C29.625 296.375 33.875 274.125 41.375 252.625C48.125 233.5 56.875 215.5 68.125 198.75C69.25 197 70.125 196.875 71.5 198.125C71.875 198.5 72.375 198.75 72.875 199C74.125 199.625 74.375 200.375 73.5 201.5C73.25 201.875 73.125 202.375 72.875 202.75C70.875 206.625 70.875 206.5 74.375 208.875C76.5 210.25 77.5 209.875 78.625 207.875C81.625 203 84.75 198.125 88.625 193.75C89.5 192.75 89.125 192.125 88.375 191.375C78.25 180.625 68 169.875 57.875 159C56.375 157.375 54 155.875 53.875 154.125C53.75 152.75 56.5 151.125 58 149.75C61.5 146.375 64.875 143 68.5 139.875C69.875 138.625 69.875 137.875 68.625 136.625C59 126.625 49.5 116.625 40 106.625C38.75 105.25 37.5 103.875 36.125 102.5C34.5 100.875 34.75 99.5 36.375 98C42.5 92.25 48.625 86.5 54.625 80.75C68.75 67.5 82.875 54.125 96.875 40.875C101 37 100.875 37 104.75 41.125C117.875 54.75 131.125 68.375 144.375 82C155.875 93.875 167.375 105.75 178.875 117.625C179.75 118.5 180.5 119 181.75 119C185.625 118.875 189.625 118.875 193.5 119C195.125 119 195.5 118.625 195.5 117C195.75 104.125 196.25 91.25 196.375 78.375C196.375 76.5 197 76.125 198.75 76.125C206.125 76.25 213.375 76.125 220.75 76.25C222.5 76.25 222.875 75.75 223.125 74.125C223.375 72.5 222.5 70.25 224 69.375C225.125 68.625 227.125 69.25 228.75 69.25C276.5 70.25 324.125 71.25 371.875 72.125C411.125 72.875 450.5 73.75 489.75 74.625C504.375 74.875 519 75.25 533.75 75.5C535.375 75.5 535.75 76 535.75 77.625C535.75 82.75 535.75 82.625 540.875 82.875C547.375 83.125 553.875 83.5 560.375 83.75C562.125 83.75 562.625 84.25 562.625 86C562.5 99.125 562.625 112.25 562.5 125.375C562.5 127.5 563.125 127.875 565.125 127.875C568.875 127.75 572.625 127.75 576.375 127.875C578.375 128 579.75 127.25 581 125.875C589.25 117.625 597.625 109.375 605.875 101C622.75 84.25 639.75 67.375 656.625 50.625C658.125 49.125 659.125 49.125 660.5 50.625C680.5 71.375 700.625 92 720.75 112.625C722 113.875 721.375 114.375 720.5 115.25C709.5 126.25 698.5 137.25 687.375 148.125C686.125 149.375 686 150.125 687.25 151.375C691.25 155.25 695.125 159.25 699 163.125C701.5 165.75 701.625 166.625 699 169.25C688.5 179.75 678 190.375 667.375 200.75C665.75 202.375 665.375 203.625 666.75 205.5C669.875 210 673 214.625 675.875 219.375C676.75 220.75 677.5 220.75 678.75 220C682.875 217.625 682.875 217.75 680.875 213.375C680.5 212.5 679.375 211.625 680.125 210.75C681.25 209.625 682.625 208.625 684.125 208C684.875 207.75 685.25 209 685.75 209.625C692.625 219.875 698.125 230.75 702.75 242.125C711 262 717.375 282.375 720.375 303.75C722.875 322.25 723.375 340.75 721.625 359.25C720 376 716.75 392.5 711.75 408.625C706.875 424.25 699.75 438.875 692 453.25C691.5 454.125 691.125 455.875 690 455.625C688.25 455.25 686.625 454.125 685 453.125C684.5 452.75 685.375 451.875 685.625 451.25C687.375 447.5 687.375 447.5 683.875 445.375C683.375 445.125 682.875 444.75 682.5 444.5C681.375 443.625 680.75 443.875 679.875 445.125C677 450 674.125 454.75 671 459.375C669.75 461.125 670.25 462.125 671.5 463.5C677.5 469.875 683.375 476.25 689.375 482.5C694.875 488.375 700.25 494.125 705.75 499.875C706.75 500.875 706.875 501.375 705.75 502.625C701.625 507.125 697.625 511.75 693.5 516.25C692.625 517.25 692.375 517.875 693.5 519C709.625 536 725.75 553 741.875 570C743.5 571.75 743.5 572.625 741.875 574.375C725.625 591.25 709.625 608.125 693.5 625C686.5 632.375 679.5 639.75 672.5 647.125C671.5 648.25 671 648 670.125 647C656.5 632.75 642.875 618.625 629.375 604.125C614 587.625 598.375 571.125 582.875 554.625C582 553.625 581 553.25 579.75 553.375C575.25 553.5 570.75 553.5 566.375 553.375C564.5 553.25 564.125 554 564.125 555.75C564.25 570.375 564.125 584.875 564.25 599.5C564.25 601.625 563.875 602.25 561.625 602.25C554.25 602.25 546.875 602.625 539.375 602.625C537.5 602.625 537 603.25 536.875 605C536.625 609.125 536.5 609.125 532.375 609.125C492.875 609.125 453.375 609.125 413.875 609.125C410.375 609.125 410.375 609.125 410.25 612.75C410.125 625 410 637.125 409.75 649.375C409.625 657.5 410 665.625 409.375 673.75C409.25 675.75 408.5 676.375 406.625 676.375C399.5 676.25 392.5 676.25 385.375 676.125C370.25 676 355.125 675.875 340 675.75C335.75 675.75 335.5 675.375 335.5 671.125C335.875 651.25 336.125 631.25 336.5 611.375C336.5 608.125 336.5 608.125 333.375 608.125C313.625 607.5 293.125 607.5 272.625 607.5ZM86 128.625C83.75 131.625 81.25 134.25 78.625 136.625C76.875 138.375 76.75 139.375 78.5 141.25C89.625 152.875 100.375 164.625 111.625 176.125C115.125 179.75 117.25 183.25 116.375 188.25C116 190.625 117.25 191 119.125 190.875C126.125 190.125 133.125 190.5 140.125 190.625C143.25 190.625 143.875 191.625 143.875 194.75C143.875 200.75 143.875 206.75 143.625 212.75C142.625 241.25 141.375 269.625 140.375 298.125C139.125 336.125 138 374.125 137 412.125C136.625 426.125 136.5 440.25 134.125 454.25C133.875 456 133.375 456.5 131.625 456.5C121.375 456.375 111.125 456.5 100.875 456.375C99.25 456.375 98.625 456.75 98.75 458.5C98.875 462.5 98.875 466.5 98.75 470.5C98.75 472 99.125 473.125 100.125 474.125C114.25 489 128.375 503.875 142.5 518.75C150.875 527.75 159.75 536.25 167.625 545.625C168.25 546.375 168.875 546.5 169.75 546.5C187.375 546.875 205.125 547.5 222.75 547.5C298.5 547.625 374.25 547.5 450 547.5C493.125 547.5 536.375 547.5 579.5 547.5C581.375 547.5 582.625 546.875 583.875 545.625C588.125 541.125 592.5 536.75 596.75 532.25C613.625 514.875 630.625 497.5 647.5 480.125C649 478.5 650 476.875 649.875 474.5C649.75 471.25 649.75 468 649.875 464.75C650 462.625 649.5 462 647.25 462C636.375 462.125 625.625 462 614.75 462.125C612.375 462.125 611.625 461.75 611.625 459.125C611.75 423.5 611.75 387.75 611.625 352.125C611.625 337.25 611.25 322.375 611.25 307.5C611.25 296.375 609.875 285.25 611.625 274.25C612 272.125 611 270.25 611 268.25C611 246.875 611 225.625 611 204.25C611 202.125 611.75 201.875 613.5 202C625.125 202.125 636.75 202 648.375 202C649.125 202 650.125 202.375 650.875 201.625C646.25 197.25 641.75 193 637.125 188.625C637.5 188.25 638 187.625 638.5 187.125C650.375 175.25 662.25 163.5 674.25 151.625C677.625 148.25 677.75 148.25 674.375 144.875C671 141.5 671 141.5 667.625 145C655.625 157 643.5 169 631.5 181C630.375 182.125 629.875 182.375 628.625 181C612.625 164.5 596.375 148 580.375 131.5C578.875 130 577.375 129.375 575.25 129.375C565.125 129.25 554.875 128.875 544.75 128.75C505.5 127.875 466.125 127.125 426.875 126.25C391 125.5 355.125 124.875 319.25 124.125C274.5 123.25 229.75 122.25 185 121.25C182.625 121.25 181 122 179.375 123.5C170.75 131.75 162.125 140 153.5 148.25C145.5 155.875 137.5 163.5 129.375 171.25C114.875 157.125 100.5 143 86 128.625ZM671.625 640.625C672.875 640.25 673.375 639.375 674 638.75C686.875 625.5 699.625 612.125 712.5 598.875C720.75 590.375 729 581.75 737.375 573.25C738.625 572 738.75 571.25 737.375 570C735.75 568.625 734.25 566.875 732.75 565.375C706 538.375 679.125 511.5 652.375 484.375C650.875 482.875 650.25 482.75 648.625 484.375C627.875 505.5 607 526.5 586 547.5C584.375 549.125 584.75 549.875 586 551.25C593.5 558.875 600.875 566.625 608.25 574.25C629.125 595.875 649.875 617.5 670.75 639.25C671.125 639.875 671.375 640.375 671.625 640.625ZM140.25 522C139.875 521.5 139.5 521.125 139.125 520.75C125.25 507.25 113.125 492.25 100 478.25C98.625 476.75 97.75 476.625 96.5 478.125C96 478.625 95.5 479.125 94.875 479.625C79.125 494.625 63.5 509.625 47.75 524.625C35 536.625 22.25 548.75 9.5 560.875C8.5 561.75 7.875 562.25 9.125 563.75C22.625 578.75 36.125 593.875 49.625 609.125C51.125 610.875 51.875 610.625 53.25 609.125C73.75 588.625 94.25 568.125 114.75 547.625C122.75 539.625 130.75 531.625 138.75 523.625C139.25 523.125 139.625 522.5 140.25 522ZM631.25 176.75C631.625 176.375 632 176 632.5 175.625C650.125 158.25 667.625 140.875 685.25 123.5C686.5 122.25 686.5 121.625 685.25 120.5C670.5 105.625 655.75 90.875 641.125 75.875C639.5 74.25 638.75 74.5 637.375 75.875C620.25 92.75 603 109.625 585.75 126.375C584.125 128 583.875 128.875 585.625 130.5C591.125 135.875 596.375 141.375 601.75 146.875C611 156.375 620.25 165.875 629.5 175.375C630 175.875 630.375 176.5 631.25 176.75ZM664 393.125C648.875 393.125 633.75 393.125 618.625 393.125C617.375 393.125 616.375 392.875 616.375 394.875C616.5 411.25 616.5 427.625 616.375 444C616.375 445.5 616.75 445.875 618.25 445.875C637.5 445.875 656.625 445.875 675.875 445.875C677.125 445.875 677.75 445.5 678.375 444.5C679.375 442.875 680.125 440.125 681.625 439.875C683.25 439.75 685.125 441.625 686.875 442.625C690.25 444.625 690.25 444.625 692 441.125C695.625 433.5 699.875 426.125 702.75 418.25C705.5 410.75 707.875 403.25 710.5 395.75C711.25 393.75 711.25 393.125 708.75 393.125C693.875 393.25 678.875 393.125 664 393.125ZM373.75 607.875C373.75 607.625 373.75 607.5 373.75 607.25C363.625 607.25 353.5 607.25 343.5 607.25C341.625 607.25 340.625 607.5 340.625 609.875C340.25 628.25 339.875 646.625 340.25 665C340.375 669.375 342.125 671.25 346.375 671.25C364.75 671.5 383.125 671.625 401.625 671.875C404.625 671.875 407.375 669.125 407.375 666.125C407.5 648 407.625 630 407.875 611.875C407.875 607.875 407.875 607.875 403.875 607.875C393.75 607.875 383.75 607.875 373.75 607.875ZM88.125 385.625C88.125 385.375 88.125 385.25 88.125 385C73.375 385 58.625 385 44 385C41.875 385 41.375 385.5 41.875 387.625C44.375 397.625 47.5 407.25 51.25 416.75C53.25 421.75 55 427 57.875 431.625C59.875 434.625 59.875 434.625 63 432.875C64.5 432 66.125 431.375 67.5 430.375C69.25 429.125 70.375 429.75 71 431.375C72.125 434.75 74.625 435.125 77.625 435.125C82 435.125 86.375 435.125 90.75 435.25C104.375 435.375 117.875 435.625 131.5 435.5C133.125 435.5 133.5 434.875 133.5 433.375C133.375 427 133.875 420.625 133.75 414.125C133.625 405.375 134.375 396.625 134.875 387.75C135 386 134.5 385.5 132.75 385.625C117.875 385.625 103 385.625 88.125 385.625ZM492.25 78.125C492.25 77.75 492.25 77.25 492.25 76.875C479.375 76.875 466.5 76.875 453.625 76.875C451.625 76.875 451.25 77.5 451.25 79.375C451.375 93.625 451.375 107.875 451.25 122.125C451.25 124.125 451.75 124.75 453.75 124.75C479.5 125.375 505.375 126.125 531.125 126.875C532.875 126.875 533.25 126.5 533.25 124.75C533.125 109.875 533.125 95.125 533.25 80.25C533.25 78.5 532.625 78.125 531 78.125C518.125 78.125 505.25 78.125 492.25 78.125ZM91.875 257.25C91.875 257.5 91.875 257.625 91.875 257.875C103.25 257.875 114.625 257.875 126 257.875C129.75 257.875 133.5 258 137.25 257.5C138.375 257.375 138.875 257.25 139 255.875C139.25 241.125 139.5 226.5 139.875 211.75C139.875 210.5 139.625 209.875 138.25 209.875C120.5 209.75 102.75 209.5 85 209.375C83.375 209.375 82.25 209.75 81.25 211.125C78.625 214.875 78.625 214.875 74.625 212.625C69.25 209.5 68.875 209.5 65.75 215C58.625 227.625 52.75 240.875 48 254.625C47.25 256.875 48 257.25 50 257.25C63.875 257.25 77.875 257.25 91.875 257.25ZM84.75 339.75C85.5 339.75 86.25 339.75 87 339.75C102.75 340 118.375 340.125 134.125 340.375C135.25 340.375 136.375 340.75 136.375 338.875C136.625 327.25 137 315.625 137.375 304C137.375 302.625 137 302.375 135.75 302.375C130.75 302.25 125.875 302.125 120.875 302C94.625 301.25 68.5 300.5 42.25 299.75C38.125 299.625 38.125 299.5 37.5 303.5C35.875 314.625 34.375 325.875 33.375 337.125C33.25 338.5 33.25 339.125 35 339.125C51.625 339.125 68.25 339.5 84.75 339.75ZM73.5 635.5C73.875 635.125 74.125 635 74.375 634.75C92 617.625 109.625 600.5 127.25 583.375C139.5 571.375 151.875 559.375 164.125 547.5C165.375 546.375 165.25 545.75 164.125 544.75C157.625 538.75 151 532.75 144.625 526.625C143.125 525.25 142.375 525.25 141 526.625C112.875 554.25 84.75 581.75 56.625 609.375C53.125 612.75 53.125 612.75 56.5 616.5C62.125 622.75 67.875 629.125 73.5 635.5ZM661.625 267.25C661.625 267.125 661.625 267.125 661.625 267.25C664.375 267.25 667.125 267.125 669.875 267.25C681.5 267.25 693.125 267.375 704.75 267.375C705.875 267.375 707.5 267.875 706.75 265.5C702.125 251.75 697.5 238 689.75 225.625C686.5 220.375 686.5 220.375 681 223.375C677.375 225.375 677.375 225.375 674.5 222.375C673.375 221.125 672.625 219.5 670.375 219.5C653 219.625 635.75 219.5 618.375 219.5C616.75 219.5 616.25 219.875 616.375 221.5C616.5 235.875 616.375 250.125 616.375 264.5C616.375 265.875 616.625 266.5 618.25 266.5C632.75 266.375 647.25 266.875 661.625 267.25ZM268.875 119.625C282 120 295.25 120.25 308.375 120.625C310 120.625 310.875 120.625 310.875 118.5C310.75 104.375 310.75 90.375 310.875 76.25C310.875 74.5 310.25 74.125 308.625 74.125C282.625 73.75 256.5 73.375 230.5 72.875C228.75 72.875 228.125 73.25 228.125 75.125C227.875 89 227.375 102.875 227 116.875C227 118.75 227.875 118.5 229.125 118.625C242.375 118.875 255.625 119.25 268.875 119.625ZM666.5 348.125C666.5 348.5 666.5 348.875 666.5 349.25C682.5 349.25 698.625 349.25 714.625 349.25C715.75 349.25 716.5 349.375 716.625 347.75C717.25 336.75 716.875 325.75 715.875 314.875C715.625 312.625 714.75 312.125 712.75 312C705 311.625 697.375 311.5 689.625 311.25C665.875 310.5 642.125 310.375 618.375 310C616.625 310 616.5 310.625 616.5 312.125C616.5 323.375 616.625 334.625 616.5 345.875C616.5 347.625 616.875 348.25 618.75 348.25C634.625 348.125 650.5 348.125 666.5 348.125ZM35 343.375C35.375 347.125 35.875 350.625 36.25 354.125C37 362.375 38.25 370.625 39.875 378.75C40.125 380.25 40.75 380.875 42.5 380.875C72.75 381.5 103 381.375 133.375 382.5C134.75 382.5 135.125 382.125 135.125 380.75C135.375 369 135.75 357.125 136.125 345.375C136.125 343.625 135.75 343.125 134 343.25C126.75 343.375 119.5 343.5 112.25 343.5C87.375 343.625 62.625 343.375 37.75 343.25C36.875 343.375 36 343.375 35 343.375ZM663.125 389.125C663.125 389.5 663.125 389.875 663.125 390.25C678 390.25 692.75 390.25 707.625 390.25C709.875 390.25 710.875 389.5 711.125 387.25C711.5 384.625 712 382.125 712.5 379.625C713.75 371.75 715.625 364 716.125 356C716.25 354.25 715.75 353.75 714.125 353.625C706.125 353 698.125 352.625 690.25 352.25C666.5 351.25 642.75 351.375 619 350.875C616.875 350.875 616.5 351.5 616.5 353.375C616.625 364 616.5 374.5 616.5 385.125C616.5 388.875 616.5 388.875 620.25 388.875C634.5 389.125 648.75 389.125 663.125 389.125ZM494.875 602.25C506.25 602.25 517.625 602.25 529.125 602.25C531 602.25 531.625 601.75 531.625 599.875C531.5 584.75 531.5 569.75 531.625 554.625C531.625 552.75 531.125 552.375 529.25 552.375C506.5 552.375 483.75 552.375 461.125 552.375C459.375 552.375 459 552.75 459 554.5C459.125 569.625 459.125 584.75 459 599.875C459 601.625 459.375 602.25 461.25 602.125C472.375 602.125 483.625 602.25 494.875 602.25ZM411 76.625C411 76.25 411 75.875 411 75.5C399.125 75.5 387.25 75.625 375.375 75.5C373.25 75.5 372.875 76.125 372.875 78.125C373 91 372.875 103.875 372.875 116.75C372.875 122.5 372.875 122.5 378.625 122.75C379.5 122.75 380.25 122.875 381.125 122.875C403 123.5 424.875 124 446.75 124.75C448.375 124.75 449 124.5 449 122.75C448.875 108.125 449 93.625 449 79C449 77.375 448.5 76.875 446.875 76.875C434.875 76.625 423 76.625 411 76.625ZM87.75 298C103.625 298.375 119.5 298.875 135.375 299.375C137.125 299.375 137.5 299 137.5 297.25C137.75 286.125 138.125 275.125 138.5 264.125C138.625 262.25 138 261.875 136.375 262C133.375 262.125 130.375 262.125 127.375 262.125C101.625 261.5 75.75 261.625 50 261.25C45.75 261.25 45.5 261.25 44.75 264.375C42.375 274.25 39.625 284 38.125 294.125C37.75 296.125 38.125 296.75 40.25 296.75C56 297 71.875 297.5 87.75 298ZM665.25 307.5C680.75 307.75 696.375 308 711.875 308.25C715 308.25 715.125 308.125 714.75 305C713.5 294.25 710.625 284 708.625 273.375C708.375 272.25 707.75 272 706.75 272C704 272 701.25 271.75 698.5 271.75C671.75 271.25 645.125 271.25 618.375 269.75C616.5 269.625 616.25 270.375 616.25 271.875C616.25 282.75 616.375 293.5 616.25 304.375C616.25 306.125 616.625 306.75 618.5 306.75C634.125 306.875 649.75 307.125 665.25 307.5ZM247.375 599.25C257.5 599.25 267.75 599.25 277.875 599.25C279.5 599.25 280.25 599 280.25 597C280.125 582.75 280.125 568.5 280.25 554.25C280.25 552.625 279.75 552.25 278.125 552.25C257.625 552.25 237.125 552.25 216.625 552.25C215 552.25 214.625 552.75 214.625 554.25C214.625 568.5 214.75 582.75 214.625 597C214.625 598.75 215.125 599.125 216.75 599.125C227 599.25 237.125 599.25 247.375 599.25ZM375.25 552.375C366 552.375 356.875 552.375 347.625 552.375C345.75 552.375 345.125 552.875 345.125 554.75C344.875 569.5 344.75 584.25 344.25 598.875C344.125 601.5 345.125 602 347.375 602.125C365.5 602.875 383.625 603 401.75 602.625C403.875 602.625 404.25 601.875 404.25 599.875C404.375 584.875 404.5 569.75 404.75 554.75C404.75 552.875 404.5 552.25 402.5 552.375C393.5 552.5 384.375 552.375 375.25 552.375ZM148.875 89.75C148.625 89.375 148.25 89 148 88.75C139 79.75 130 70.875 121.125 61.75C120.25 60.875 119.75 60.875 118.75 61.75C102.75 77.375 86.75 92.875 70.75 108.375C69.625 109.5 69.75 110 70.875 111.125C79.375 119.75 88.375 128.125 96.625 137.125C97.5 138 97.875 137.875 98.625 137.125C104.75 131.25 110.875 125.5 117 119.75C127.125 110.25 137.25 100.875 147.375 91.5C147.875 91 148.625 90.625 148.875 89.75ZM128.375 168.5C129.125 168.5 129.375 168.125 129.75 167.75C131.625 166 133.375 164.25 135.25 162.5C149.375 149 163.5 135.5 177.625 122.125C178.5 121.25 178.875 120.75 177.875 119.625C169.25 110.75 160.625 101.875 152.125 92.875C151 91.75 150.5 91.875 149.5 92.875C133.625 108.375 117.875 123.875 102 139.25C101 140.25 100.625 140.875 101.875 142.125C110.375 150.5 118.875 159 127.25 167.5C127.625 167.875 128.125 168.25 128.375 168.5ZM341.875 121C341.875 121.25 341.875 121.375 341.875 121.625C350.625 121.875 359.375 122.125 368.25 122.5C370 122.625 370.625 122.25 370.625 120.25C370.5 106 370.5 91.75 370.625 77.5C370.625 75.75 370.125 75.125 368.375 75.125C350.75 75 333.25 74.75 315.625 74.5C313.625 74.5 313.125 75 313.125 76.875C313.25 90.75 313.25 104.75 313.125 118.625C313.125 120.625 313.75 121.125 315.625 121.125C324.375 120.875 333.125 121 341.875 121ZM312.625 552.5C303.375 552.5 294.125 552.5 284.75 552.5C283.25 552.5 282.625 552.75 282.625 554.5C282.75 569.125 282.75 583.75 282.625 598.5C282.625 600.125 283.125 600.5 284.75 600.5C294.625 600.375 304.625 600.375 314.5 600.5C316.25 600.5 316.75 600.125 316.625 598.375C316.5 592.125 316.625 585.875 316.5 579.625C316.5 577.5 317.125 577 319.125 577.125C326 577.25 333 577.125 339.875 577.25C341.625 577.25 342.25 576.875 342.25 575C342.125 568.375 342.125 561.625 342.25 555C342.25 553 341.625 552.75 339.875 552.75C330.75 552.5 321.625 552.5 312.625 552.5ZM119.25 58.125C118.75 57.625 118.375 57.125 117.875 56.625C113 51.625 108.125 46.625 103.375 41.5C102 40.125 101.375 40.375 100.125 41.5C79.75 60.875 59.5 80 39.125 99.125C38.125 100.125 38 100.625 39 101.625C44.125 106.75 49.125 112 54.125 117.25C55.125 118.375 55.75 118.375 56.75 117.375C60.875 113.375 65 109.5 69.125 105.625C85.5 90.25 101.75 74.75 118.125 59.375C118.625 59 118.875 58.625 119.25 58.125ZM719 113C718.75 112.625 718.375 112.25 717.875 111.875C698.75 92.125 679.625 72.375 660.5 52.5C659.25 51.25 658.75 51.5 657.625 52.5C652.75 57.25 647.75 62 642.625 66.5C641.25 67.75 641.125 68.375 642.5 69.75C661.625 89.375 680.75 109.125 699.75 128.875C700.625 129.75 701.25 130 702.25 129C707.5 124 712.75 119 718 114.125C718.5 114 719 113.75 719 113ZM457 577.75C457 570 457 562.25 457 554.625C457 553.125 456.75 552.5 455 552.5C440 552.625 424.875 552.625 409.875 552.5C408.375 552.5 408 553 408 554.5C408.125 561.375 408.125 568.125 408 575C408 576.625 408.5 577.125 410 577C416.875 576.875 423.625 577 430.5 576.875C432.125 576.875 432.625 577.375 432.5 578.875C432.375 586.125 432.5 593.375 432.375 600.625C432.375 602.125 432.625 602.75 434.375 602.75C441.25 602.625 448 602.625 454.875 602.75C456.5 602.75 456.875 602.25 456.875 600.625C457 593 457 585.375 457 577.75ZM75.375 438.875C77.625 443.125 79.75 446.875 81.75 450.75C82.375 451.875 83.25 451.75 84.25 451.75C99.375 452.5 114.5 453.125 129.625 453.875C131 454 131.625 453.75 131.75 452.25C132 448.625 132.5 445 133 441.375C133.375 439.375 132.75 438.75 130.625 438.75C116.75 438.875 102.75 438.75 88.875 438.75C84.5 438.875 80.125 438.875 75.375 438.875ZM84.5 205.375C84.625 205.625 84.75 205.875 84.875 206.125C87.875 206.125 90.875 206 93.875 206.125C108.875 206.625 123.75 207 138.75 207.5C140.375 207.5 141.125 207.25 141 205.5C140.875 202.125 140.875 198.875 141 195.5C141.125 193.875 140.5 193.5 138.875 193.5C124.375 193.5 109.75 193.5 95.25 193.5C94.5 193.5 93.75 193.375 93.25 194C90.25 197.75 87.375 201.5 84.5 205.375ZM671.5 216.875C668.875 212.5 666.625 208.75 664.375 204.875C663.875 204 663.25 204.125 662.5 204.125C647.75 204.125 632.875 204.125 618.125 204.125C616.625 204.125 616.375 204.625 616.375 206C616.5 208.875 616.5 211.75 616.375 214.5C616.25 216.625 617 217 619 217C635.625 216.875 652.125 217 668.75 217C669.5 216.875 670.25 216.875 671.5 216.875ZM676.25 447C656.25 447 636.875 447 617.5 447C616.25 447 615.75 447.375 615.875 448.625C616 451.125 616 453.5 615.875 456C615.875 457.25 616.25 457.625 617.5 457.75C634.125 458 650.75 458.375 667.25 458.75C668 458.75 668.75 458.875 669.25 458.125C671.5 454.5 673.75 451 676.25 447ZM409.125 589.875C409.125 593.25 409.25 596.5 409.125 599.875C409.125 601.25 409.625 601.625 410.875 601.625C417.125 601.625 423.375 601.5 429.625 601.625C431 601.625 431.375 601.125 431.375 599.75C431.375 593.125 431.375 586.625 431.375 580C431.375 578.625 431.125 578.125 429.625 578.125C423.25 578.25 416.875 578.25 410.625 578.125C409.25 578.125 409 578.625 409 579.75C409.125 583.25 409.125 586.625 409.125 589.875ZM329.625 599.25C332.875 599.25 336.125 599.25 339.375 599.25C340.625 599.25 341.25 599 341.25 597.5C341.125 591.5 341.25 585.625 341.25 579.625C341.25 578.5 341 578 339.75 578C332.875 578 326.125 578 319.25 578C318 578 317.75 578.5 317.75 579.625C317.75 585.625 317.875 591.5 317.75 597.5C317.75 599 318.375 599.25 319.625 599.25C323 599.25 326.25 599.25 329.625 599.25ZM68.5 111.5C68.375 111.625 68.125 111.75 67.875 111.875C64.75 114.625 61.75 117.375 58.625 120.125C57.75 120.875 58.375 121.375 58.875 121.875C63.625 126.625 68.5 131.375 73.25 136.25C74 137 74.375 137.125 75.125 136.25C77.5 133.375 80.125 130.625 82.625 127.875C83.375 127.125 83.5 126.5 82.625 125.625C78.25 121.25 74 116.75 69.75 112.25C69.375 112 69.125 111.5 68.5 111.5ZM696 132C695.625 131.625 695.375 131.375 695.125 131C693.25 129.125 691.375 127.375 689.625 125.5C688.75 124.5 688.125 124.75 687.375 125.5C683.375 129.625 679.25 133.75 675.125 137.75C674.25 138.625 674 139.125 675 140C676.875 141.75 678.625 143.5 680.375 145.375C681.25 146.25 681.75 146.5 682.75 145.5C686.875 141.25 691 137.25 695.125 133C695.375 132.75 695.625 132.375 696 132Z" fill="#050404"/>
<path id="Vector_3" d="M86 128.625C100.5 143 114.875 157.125 129.375 171.375C137.5 163.625 145.5 156 153.5 148.375C162.125 140.125 170.75 131.875 179.375 123.625C181 122.125 182.625 121.375 185 121.375C229.75 122.375 274.5 123.375 319.25 124.25C355.125 125 391 125.625 426.875 126.375C466.125 127.125 505.5 128 544.75 128.875C554.875 129.125 565.125 129.375 575.25 129.5C577.25 129.5 578.875 130.125 580.375 131.625C596.375 148.125 612.625 164.625 628.625 181.125C629.875 182.5 630.5 182.25 631.5 181.125C643.5 169.125 655.625 157.125 667.625 145.125C671 141.75 671 141.625 674.375 145C677.75 148.375 677.75 148.375 674.25 151.75C662.375 163.5 650.375 175.375 638.5 187.25C637.875 187.875 637.375 188.375 637.125 188.75C641.75 193.125 646.25 197.375 650.875 201.75C650 202.5 649.125 202.125 648.375 202.125C636.75 202.125 625.125 202.125 613.5 202.125C611.75 202.125 611 202.375 611 204.375C611.125 225.75 611 247 611 268.375C611 270.375 611.875 272.375 611.625 274.375C609.875 285.5 611.25 296.625 611.25 307.625C611.25 322.5 611.625 337.375 611.625 352.25C611.625 387.875 611.625 423.625 611.625 459.25C611.625 461.875 612.375 462.25 614.75 462.25C625.625 462.125 636.375 462.25 647.25 462.125C649.5 462.125 650 462.75 649.875 464.875C649.75 468.125 649.75 471.375 649.875 474.625C650 477 649.125 478.625 647.5 480.25C630.5 497.625 613.625 515 596.75 532.375C592.375 536.75 588.125 541.25 583.875 545.75C582.625 547.125 581.375 547.625 579.5 547.625C536.375 547.625 493.125 547.625 450 547.625C374.25 547.625 298.5 547.75 222.75 547.625C205.125 547.625 187.375 547 169.75 546.625C168.875 546.625 168.25 546.375 167.625 545.75C159.625 536.375 150.875 527.75 142.5 518.875C128.375 504 114.25 489.125 100.125 474.25C99.125 473.25 98.625 472.125 98.75 470.625C98.875 466.625 98.875 462.625 98.75 458.625C98.625 456.875 99.25 456.5 100.875 456.5C111.125 456.625 121.375 456.5 131.625 456.625C133.375 456.625 133.875 456.125 134.125 454.375C136.5 440.5 136.5 426.375 137 412.25C138.125 374.25 139.125 336.25 140.375 298.25C141.375 269.75 142.625 241.375 143.625 212.875C143.875 206.875 143.75 200.875 143.875 194.875C143.875 191.75 143.25 190.75 140.125 190.75C133.125 190.625 126.125 190.25 119.125 191C117.125 191.25 115.875 190.75 116.375 188.375C117.25 183.375 115.125 179.75 111.625 176.25C100.375 164.75 89.625 153 78.5 141.375C76.75 139.5 76.875 138.5 78.625 136.75C81.25 134.25 83.75 131.625 86 128.625ZM153.25 332.5C153 332.5 152.75 332.5 152.5 332.5C152.5 339.875 152.75 347.125 152.5 354.5C151.625 381.25 150.5 408 149.625 434.75C148.875 456.5 148.125 478.25 147.375 499.875C147.25 502.125 147.875 504 149.375 505.625C152.25 508.625 155.5 511.375 157.75 514.75C161.375 519.875 165.875 521 171.875 520.75C188.75 520.375 205.625 520.625 222.5 520.625C224.625 520.625 225.625 521 225.375 523.375C225.125 525 225.5 526.75 225.25 528.5C225 530.875 225.75 531.375 228.125 531.375C325 531.25 422 531.375 518.875 531.375C523.875 531.375 523.875 531.375 523.875 526.375C523.875 524.875 524.125 524.375 525.875 524.375C544 524.5 562.25 524.375 580.375 524.375C581 524.375 581.875 524.25 582 524.5C583.25 526.5 584.125 524.875 584.875 524.25C588.5 520.625 592 516.75 595.75 513.375C598.875 510.625 599.75 507.5 599.75 503.5C599.25 465.875 598.875 428.25 598.375 390.625C598.125 368.125 597.875 345.625 597.75 323C597.625 297.5 597.375 272 597.25 246.5C597.125 222.375 597.125 198.25 597.125 174.25C597.125 172.125 596.5 170.625 594.875 169.125C591.5 166.125 588.125 163.125 585.25 159.75C582.25 156.25 578.75 155.125 574.25 155.125C557.75 155 541.25 154.5 524.625 154.25C523.125 154.25 522.5 153.875 522.625 152.25C522.75 150 522.625 147.75 522.75 145.375C522.875 144 522.375 143.5 521 143.625C518.875 143.75 516.75 143.625 514.625 143.5C499.125 143.375 483.5 143.375 468 143.125C437.25 142.625 406.375 142 375.625 141.375C362.5 141.125 349.375 140.875 336.375 140.625C304.75 140 273 139.5 241.375 138.875C239.375 138.875 236.875 138.25 235.75 139.25C234.5 140.25 235.25 142.875 235.375 144.875C235.5 146.625 235 147.25 233.125 147.125C214.375 146.625 195.5 146.375 176.75 145.875C175.25 145.875 174.125 146.375 173.125 147.375C169.375 151 165.75 154.625 161.875 158.125C159.75 160 158.75 162.125 158.75 164.875C158.125 196.5 156.75 228.125 155.875 259.875C154.875 284.25 154.375 308.375 153.25 332.5Z" fill="#FEFEFE"/>
<path id="Vector_4" d="M671.625 640.625C671.375 640.25 671.125 639.75 670.75 639.375C649.875 617.75 629.125 596.125 608.25 574.375C600.875 566.75 593.5 559 586 551.375C584.625 550 584.25 549.25 586 547.625C606.875 526.625 627.75 505.625 648.625 484.5C650.125 482.875 650.875 483.125 652.375 484.5C679.125 511.5 706 538.5 732.75 565.5C734.25 567 735.75 568.75 737.375 570.125C738.75 571.375 738.75 572 737.375 573.375C729 581.875 720.75 590.375 712.5 599C699.625 612.25 686.875 625.625 674 638.875C673.375 639.5 672.875 640.25 671.625 640.625Z" fill="#D8D8D8"/>



<path id="fc_3" class="interactive-element" data-info="Information for FC_3" d="M140.25 522C139.75 522.625 139.25 523.125 138.75 523.625C130.75 531.625 122.75 539.625 114.75 547.625C94.25 568.125 73.75 588.625 53.25 609.125C51.75 610.625 51.125 610.875 49.625 609.125C36.25 593.875 22.75 578.75 9.12501 563.75C7.87501 562.375 8.50001 561.875 9.50001 560.875C22.25 548.75 35 536.625 47.625 524.5C63.375 509.5 79 494.5 94.75 479.5C95.25 479 95.875 478.5 96.375 478C97.625 476.5 98.5 476.625 99.875 478.125C113.125 492.125 125.25 507.25 139 520.625C139.5 521 139.875 521.5 140.25 522Z" fill="#A5A5A5"/>
<path id="cse_sh" class="interactive-element" d="M631.25 176.75C630.375 176.5 630 175.875 629.5 175.375C620.25 165.875 611 156.375 601.75 146.875C596.375 141.375 591.125 135.875 585.625 130.5C583.875 128.75 584.125 127.875 585.75 126.375C603 109.625 620.25 92.75 637.375 75.875C638.75 74.5 639.625 74.25 641.125 75.875C655.75 90.875 670.5 105.625 685.25 120.5C686.5 121.75 686.5 122.375 685.25 123.5C667.625 140.875 650 158.25 632.5 175.625C632 176.125 631.625 176.5 631.25 176.75Z" fill="#EC8E35"/>
<path id="Vector_5" class="interactive-element" d="M664 393.125C678.875 393.125 693.75 393.25 708.625 393.125C711.125 393.125 711.125 393.75 710.375 395.75C707.75 403.25 705.375 410.875 702.625 418.25C699.75 426.125 695.375 433.5 691.875 441.125C690.25 444.625 690.125 444.625 686.75 442.625C685 441.625 683.125 439.75 681.5 439.875C680 440 679.25 442.75 678.25 444.5C677.625 445.5 677 445.875 675.75 445.875C656.5 445.875 637.375 445.875 618.125 445.875C616.625 445.875 616.25 445.5 616.25 444C616.25 427.625 616.375 411.25 616.25 394.875C616.25 392.875 617.25 393.125 618.5 393.125C633.75 393.125 648.875 393.125 664 393.125Z" fill="#D8D8D8"/>
<path id="Vector_6" class="interactive-element" d="M373.75 607.875C383.75 607.875 393.75 607.875 403.75 607.875C407.75 607.875 407.75 607.875 407.75 611.875C407.625 630 407.5 648 407.25 666.125C407.25 669.125 404.5 672 401.5 671.875C383.125 671.75 364.75 671.5 346.25 671.25C341.875 671.25 340.125 669.25 340.125 665C339.75 646.625 340.125 628.25 340.5 609.875C340.5 607.5 341.5 607.25 343.375 607.25C353.5 607.25 363.625 607.25 373.625 607.25C373.75 607.5 373.75 607.75 373.75 607.875Z" fill="#FEFEFE"/>
<path id="lab1" class="interactive-element" d="M88.125 385.625C103 385.625 117.875 385.625 132.75 385.625C134.5 385.625 135 386.125 134.875 387.75C134.375 396.5 133.625 405.25 133.75 414.125C133.75 420.5 133.25 426.875 133.5 433.375C133.5 434.875 133.125 435.5 131.5 435.5C117.875 435.625 104.375 435.375 90.75 435.25C86.375 435.25 82 435.125 77.625 435.125C74.625 435.125 72.125 434.625 71 431.375C70.5 429.75 69.375 429 67.5 430.375C66.125 431.375 64.5 432 63 432.875C59.875 434.625 59.75 434.625 57.875 431.625C54.875 427 53.25 421.875 51.25 416.75C47.5 407.25 44.25 397.5 41.875 387.625C41.375 385.625 41.75 385 44 385C58.75 385.125 73.5 385 88.125 385C88.125 385.125 88.125 385.375 88.125 385.625Z" fill="#FEFEFE"/>
<path id="Vector_7" class="interactive-element" d="M492.25 78.125C505.25 78.125 518.125 78.125 531.125 78.125C532.75 78.125 533.375 78.375 533.375 80.25C533.25 95.125 533.25 109.875 533.375 124.75C533.375 126.5 533 127 531.25 126.875C505.5 126.125 479.625 125.375 453.875 124.75C451.875 124.75 451.375 124.125 451.375 122.125C451.5 107.875 451.5 93.625 451.375 79.375C451.375 77.5 451.75 76.875 453.75 76.875C466.625 77 479.5 76.875 492.375 76.875C492.25 77.25 492.25 77.625 492.25 78.125Z" fill="#EC8E35"/>
<path id="lab5" class="interactive-element" d="M91.875 257.25C77.875 257.25 63.875 257.25 49.875 257.25C47.875 257.25 47.125 257 47.875 254.625C52.625 240.875 58.5 227.625 65.625 215C68.75 209.5 69.125 209.5 74.5 212.625C78.5 215 78.5 215 81.125 211.125C82.125 209.75 83.25 209.375 84.875 209.375C102.625 209.625 120.375 209.75 138.125 209.875C139.625 209.875 139.875 210.375 139.75 211.75C139.375 226.5 139.125 241.125 138.875 255.875C138.875 257.25 138.25 257.375 137.125 257.5C133.375 258 129.625 257.875 125.875 257.875C114.5 257.875 103.125 257.875 91.75 257.875C91.875 257.625 91.875 257.375 91.875 257.25Z" fill="#FEFEFE"/>
<path id="lab3" class="interactive-element" d="M84.75 339.75C68.125 339.5 51.5 339.25 35 339C33.25 339 33.25 338.375 33.375 337C34.5 325.75 35.875 314.5 37.5 303.375C38.125 299.5 38.125 299.5 42.25 299.625C68.5 300.375 94.625 301.125 120.875 301.875C125.875 302 130.75 302.25 135.75 302.25C137 302.25 137.5 302.5 137.375 303.875C137 315.5 136.625 327.125 136.375 338.75C136.375 340.625 135.25 340.375 134.125 340.25C118.375 340 102.75 339.875 87 339.625C86.25 339.75 85.5 339.75 84.75 339.75Z" fill="#FEFEFE"/>
<path id="fc_2" class="interactive-element" d="M73.5 635.5C67.75 629.125 62 622.75 56.375 616.375C53.125 612.75 53.125 612.75 56.5 609.25C84.625 581.625 112.75 554.125 140.875 526.5C142.25 525.125 143.125 525 144.5 526.5C150.875 532.625 157.5 538.625 164 544.625C165.125 545.625 165.25 546.25 164 547.375C151.625 559.25 139.375 571.375 127.125 583.25C109.5 600.375 91.875 617.5 74.25 634.625C74.125 635 73.875 635.125 73.5 635.5Z" fill="#A5A5A5"/>
<path id="Vector_8" class="interactive-element" d="M661.625 267.25C647.125 266.875 632.625 266.5 618.25 266.125C616.625 266.125 616.375 265.5 616.375 264.125C616.375 249.75 616.375 235.5 616.375 221.125C616.375 219.5 616.875 219.125 618.375 219.125C635.75 219.25 653 219.25 670.375 219.125C672.625 219.125 673.375 220.875 674.5 222C677.375 225 677.375 225 681 223C686.375 220 686.375 220 689.75 225.25C697.5 237.625 702.125 251.5 706.75 265.125C707.625 267.5 705.875 267 704.75 267C693.125 267 681.5 266.875 669.875 266.875C667.25 267.125 664.5 267.125 661.625 267.25C661.625 267.125 661.625 267.125 661.625 267.25Z" fill="#FEFEFE"/>
<path id="Vector_9" class="interactive-element" d="M268.875 119.625C255.625 119.25 242.375 118.875 229.125 118.5C228 118.5 227 118.625 227 116.75C227.5 102.875 227.875 89 228.125 75C228.125 73.125 228.75 72.75 230.5 72.75C256.5 73.25 282.625 73.625 308.625 74C310.25 74 310.875 74.375 310.875 76.125C310.75 90.25 310.75 104.25 310.875 118.375C310.875 120.5 310 120.5 308.375 120.5C295.25 120.375 282 120 268.875 119.625Z" fill="#EC8E35"/>
<path id="Vector_10" class="interactive-element" d="M666.5 348.125C650.5 348.125 634.625 348.125 618.625 348.125C616.75 348.125 616.375 347.625 616.375 345.75C616.5 334.5 616.375 323.25 616.375 312C616.375 310.625 616.5 309.875 618.25 309.875C642 310.25 665.75 310.375 689.5 311.125C697.25 311.375 704.875 311.5 712.625 311.875C714.625 312 715.5 312.5 715.75 314.75C716.75 325.75 717.25 336.625 716.5 347.625C716.375 349.25 715.625 349.125 714.5 349.125C698.5 349.125 682.375 349.125 666.375 349.125C666.5 348.875 666.5 348.5 666.5 348.125Z" fill="#FEFEFE"/>
<path id="lab2" class="interactive-element" d="M35 343.375C36 343.375 36.875 343.375 37.75 343.375C62.625 343.5 87.375 343.75 112.25 343.625C119.5 343.625 126.75 343.5 134 343.375C135.75 343.375 136.125 343.75 136.125 345.5C135.75 357.25 135.375 369.125 135.125 380.875C135.125 382.25 134.75 382.625 133.375 382.625C103.125 381.5 72.875 381.625 42.5 381C40.875 381 40.25 380.375 39.875 378.875C38.25 370.75 37 362.5 36.25 354.25C36 350.625 35.5 347 35 343.375Z" fill="#FEFEFE"/>
<path id="Vector_11" class="interactive-element" d="M663.125 389.125C648.75 389.125 634.5 389.125 620.125 389.125C616.375 389.125 616.375 389.125 616.375 385.375C616.375 374.75 616.375 364.25 616.375 353.625C616.375 351.625 616.75 351 618.875 351.125C642.625 351.625 666.375 351.5 690.125 352.5C698.125 352.875 706 353.125 714 353.875C715.625 354 716.125 354.5 716 356.25C715.375 364.25 713.625 372 712.375 379.875C712 382.5 711.375 385 711 387.5C710.75 389.625 709.75 390.5 707.5 390.5C692.625 390.375 677.875 390.5 663 390.5C663.125 389.875 663.125 389.5 663.125 389.125Z" fill="#FEFEFE"/>
<path id="Vector_12" class="interactive-element" d="M494.875 602.25C483.625 602.25 472.375 602.25 461.125 602.25C459.25 602.25 458.875 601.75 458.875 600C459 584.875 459 569.75 458.875 554.625C458.875 552.875 459.375 552.5 461 552.5C483.75 552.5 506.5 552.5 529.125 552.5C530.875 552.5 531.5 552.875 531.5 554.75C531.375 569.875 531.375 584.875 531.5 600C531.5 602 531 602.375 529 602.375C517.75 602.125 506.25 602.25 494.875 602.25Z" fill="#A5A5A5"/>
<path id="Vector_13" class="interactive-element" d="M411 76.625C423 76.625 434.875 76.625 446.875 76.625C448.5 76.625 449 77.125 449 78.75C449 93.375 449 107.875 449 122.5C449 124.375 448.375 124.625 446.75 124.5C424.875 123.875 403 123.25 381.125 122.625C380.25 122.625 379.5 122.5 378.625 122.5C372.875 122.375 372.875 122.375 372.875 116.5C372.875 103.625 372.875 90.75 372.875 77.875C372.875 75.875 373.25 75.25 375.375 75.25C387.25 75.375 399.125 75.25 411 75.25C411 75.875 411 76.25 411 76.625Z" fill="#EC8E35"/>
<path id="lab4" class="interactive-element" d="M87.75 298C71.875 297.5 56 297 40.125 296.625C38 296.625 37.75 296 38 294C39.5 284 42.375 274.125 44.625 264.25C45.375 261.125 45.75 261.125 49.875 261.125C75.625 261.5 101.5 261.375 127.25 262C130.25 262.125 133.25 262 136.25 261.875C137.875 261.75 138.375 262.125 138.375 264C137.875 275 137.625 286.125 137.375 297.125C137.375 298.75 137 299.25 135.25 299.25C119.5 298.875 103.625 298.375 87.75 298Z" fill="#FEFEFE"/>
<path id="Vector_14" class="interactive-element" d="M665.25 307.5C649.75 307.25 634.125 306.875 618.625 306.625C616.75 306.625 616.375 306 616.375 304.25C616.5 293.375 616.5 282.625 616.375 271.75C616.375 270.25 616.5 269.5 618.5 269.625C645.125 271.125 671.875 271.125 698.625 271.625C701.375 271.625 704.125 271.875 706.875 271.875C707.875 271.875 708.5 272.125 708.75 273.25C710.75 283.75 713.625 294.125 714.875 304.875C715.25 308 715.125 308.25 712 308.125C696.375 307.875 680.875 307.625 665.25 307.5Z" fill="#FEFEFE"/>
<path id="fc_1" class="interactive-element" d="M247.375 599.25C237.25 599.25 227 599.25 216.875 599.25C215.125 599.25 214.625 598.875 214.75 597.125C214.875 582.875 214.875 568.625 214.75 554.375C214.75 552.75 215.125 552.375 216.75 552.375C237.25 552.375 257.75 552.375 278.25 552.375C279.75 552.375 280.375 552.75 280.375 554.375C280.25 568.625 280.25 582.875 280.375 597.125C280.375 599.125 279.625 599.375 278 599.375C267.75 599.25 257.5 599.25 247.375 599.25Z" fill="#A5A5A5"/>
<path id="Vector_15" class="interactive-element" d="M375.25 552.375C384.375 552.375 393.5 552.5 402.625 552.375C404.625 552.375 404.875 553 404.875 554.75C404.625 569.75 404.375 584.875 404.375 599.875C404.375 601.75 404 602.5 401.875 602.625C383.75 602.875 365.625 602.875 347.5 602.125C345.25 602 344.375 601.5 344.375 598.875C344.75 584.125 345 569.375 345.25 554.75C345.25 552.875 345.875 552.375 347.75 552.375C356.875 552.5 366 552.375 375.25 552.375Z" fill="#FEFEFE"/>
<path id="Vector_16" class="interactive-element" d="M148.875 89.75C148.625 90.625 148 91 147.5 91.5C137.375 101 127.25 110.375 117.125 119.75C111 125.5 104.75 131.375 98.75 137.125C97.875 137.875 97.5 138 96.75 137.125C88.5 128.125 79.625 119.75 71 111.125C70 110.125 69.75 109.5 70.875 108.375C86.875 92.875 102.75 77.25 118.75 61.75C119.625 60.875 120.125 60.875 121.125 61.75C130.125 70.75 139 79.75 148 88.75C148.25 89 148.5 89.375 148.875 89.75Z" fill="#EC8E35"/>
<path id="Vector_17" class="interactive-element" d="M128.375 168.5C128 168.25 127.625 167.875 127.25 167.5C118.75 159 110.375 150.5 101.875 142.125C100.625 140.875 101 140.25 102 139.25C117.875 123.875 133.75 108.375 149.5 92.875C150.5 91.875 151.125 91.75 152.125 92.875C160.625 101.875 169.25 110.75 177.875 119.625C178.875 120.75 178.625 121.25 177.625 122.125C163.5 135.625 149.375 149 135.25 162.5C133.375 164.25 131.625 166 129.75 167.75C129.5 168.125 129.125 168.5 128.375 168.5Z" fill="#EC8E35"/>
<path id="Vector_18" class="interactive-element"  d="M341.875 121C333.125 121 324.25 121 315.5 121C313.625 121 313 120.5 313 118.5C313.125 104.625 313.125 90.625 313 76.75C313 74.875 313.5 74.375 315.5 74.375C333.125 74.625 350.625 74.875 368.25 75C370.125 75 370.5 75.625 370.5 77.375C370.375 91.625 370.375 105.875 370.5 120.125C370.5 122 370 122.375 368.125 122.375C359.375 122 350.625 121.75 341.75 121.5C341.875 121.375 341.875 121.125 341.875 121Z" fill="#EC8E35"/>
<path id="ICT_office" class="interactive-element"  d="M312.625 552.5C321.75 552.5 330.875 552.5 340 552.5C341.75 552.5 342.375 552.75 342.375 554.75C342.25 561.375 342.25 568.125 342.375 574.75C342.375 576.625 341.875 577 340 577C333.125 576.875 326.125 577 319.25 576.875C317.25 576.875 316.625 577.25 316.625 579.375C316.75 585.625 316.625 591.875 316.75 598.125C316.75 599.875 316.25 600.25 314.625 600.25C304.75 600.125 294.75 600.125 284.875 600.25C283.375 600.25 282.75 599.875 282.75 598.25C282.875 583.625 282.875 569 282.75 554.25C282.75 552.5 283.375 552.25 284.875 552.25C294 552.5 303.25 552.5 312.625 552.5Z" fill="#A5A5A5"/>
<path id="Vector_19" class="interactive-element"  d="M119.25 58.125C118.875 58.5 118.625 58.875 118.25 59.25C101.875 74.625 85.625 90.125 69.25 105.5C65.125 109.375 61 113.25 56.875 117.25C55.75 118.25 55.25 118.25 54.25 117.125C49.25 111.875 44.25 106.625 39.125 101.5C38.125 100.5 38.25 100 39.25 99C59.5 80 79.75 60.875 100 41.625C101.25 40.5 101.875 40.125 103.25 41.625C108 46.75 113 51.75 117.75 56.75C118.25 57.125 118.75 57.625 119.25 58.125Z" fill="#D8D8D8"/>
<path id="Vector_20" class="interactive-element"  d="M719 113C719 113.75 718.5 114 718.125 114.25C712.875 119.25 707.625 124.125 702.375 129.125C701.375 130.125 700.75 129.875 699.875 129C680.875 109.25 661.75 89.5 642.625 69.875C641.25 68.5 641.375 67.875 642.75 66.625C647.875 62 652.75 57.25 657.75 52.625C658.75 51.625 659.375 51.375 660.625 52.625C679.75 72.375 698.875 92.125 718 111.875C718.25 112.25 718.625 112.625 719 113Z" fill="#D8D8D8"/>
<path id="Vector_21" class="interactive-element"  d="M457 577.75C457 585.375 457 593 457 600.75C457 602.25 456.625 602.875 455 602.875C448.125 602.75 441.375 602.75 434.5 602.875C432.75 602.875 432.5 602.25 432.5 600.75C432.625 593.5 432.5 586.25 432.625 579C432.625 577.375 432.125 576.875 430.625 577C423.75 577.125 417 577 410.125 577.125C408.5 577.125 408 576.625 408.125 575.125C408.25 568.25 408.25 561.5 408.125 554.625C408.125 553.125 408.5 552.625 410 552.625C425 552.625 440.125 552.75 455.125 552.625C456.875 552.625 457.125 553.25 457.125 554.75C457 562.25 457 570 457 577.75Z" fill="#A5A5A5"/>
<path id="Vector_22" class="interactive-element"  d="M75.375 438.875C80.125 438.875 84.5 438.875 88.875 438.875C102.75 438.875 116.75 438.875 130.625 438.875C132.75 438.875 133.375 439.375 133 441.5C132.5 445.125 132 448.75 131.75 452.375C131.625 454 131 454.125 129.625 454C114.5 453.25 99.375 452.5 84.25 451.875C83.25 451.875 82.375 452 81.75 450.875C79.75 446.875 77.625 443.125 75.375 438.875Z" fill="#EC8E35"/>
<path id="Vector_23" class="interactive-element"  d="M84.5 205.375C87.375 201.625 90.25 197.75 93.125 194C93.625 193.25 94.5 193.5 95.125 193.5C109.625 193.5 124.25 193.5 138.75 193.5C140.375 193.5 140.875 193.875 140.875 195.5C140.75 198.875 140.75 202.125 140.875 205.5C141 207.375 140.25 207.625 138.625 207.5C123.625 207 108.75 206.5 93.75 206.125C90.75 206 87.75 206.125 84.75 206.125C84.75 205.875 84.625 205.625 84.5 205.375Z" fill="#EC8E35"/>
<path id="Vector_24" class="interactive-element"  d="M671.5 216.875C670.25 216.875 669.5 216.875 668.75 216.875C652.125 216.875 635.625 216.875 619 216.875C617 216.875 616.25 216.5 616.375 214.375C616.625 211.5 616.5 208.625 616.375 205.875C616.375 204.5 616.625 204 618.125 204C632.875 204 647.75 204 662.5 204C663.25 204 663.875 204 664.375 204.75C666.625 208.75 668.875 212.5 671.5 216.875Z" fill="#EC8E35"/>
<path id="Vector_25" class="interactive-element"  d="M676.25 447C673.75 451 671.5 454.5 669.25 458C668.75 458.75 668 458.625 667.25 458.625C650.625 458.25 634 457.875 617.5 457.625C616.25 457.625 615.75 457.25 615.875 455.875C616 453.375 616 451 615.875 448.5C615.875 447.25 616.25 446.875 617.5 446.875C636.875 447 656.25 447 676.25 447Z" fill="#EC8E35"/>
<path id="Vector_26" class="interactive-element"  d="M409.125 589.875C409.125 586.5 409.125 583.25 409.125 579.875C409.125 578.625 409.375 578.125 410.75 578.25C417.125 578.375 423.5 578.375 429.75 578.25C431.25 578.25 431.5 578.75 431.5 580.125C431.5 586.75 431.5 593.25 431.5 599.875C431.5 601.25 431.125 601.75 429.75 601.75C423.5 601.625 417.25 601.75 411 601.75C409.625 601.75 409.125 601.375 409.25 600C409.25 596.625 409.125 593.25 409.125 589.875Z" fill="#D8D8D8"/>
<path id="hod" class="interactive-element"  d="M329.625 599.25C326.25 599.25 323 599.25 319.625 599.25C318.375 599.25 317.75 599 317.75 597.5C317.875 591.5 317.75 585.625 317.75 579.625C317.75 578.5 318 578 319.25 578C326.125 578 332.875 578 339.75 578C341 578 341.25 578.5 341.25 579.625C341.25 585.625 341.125 591.5 341.25 597.5C341.25 599 340.75 599.25 339.375 599.25C336.125 599.25 332.875 599.25 329.625 599.25Z" fill="#D8D8D8"/>
<path id="Vector_27" d="M68.5 111.5C69.125 111.5 69.375 112 69.625 112.375C73.875 116.875 78.125 121.25 82.5 125.75C83.375 126.625 83.125 127.25 82.5 128C80 130.75 77.5 133.5 75 136.375C74.25 137.25 73.875 137.125 73.125 136.375C68.375 131.625 63.625 126.75 58.75 122C58.25 121.5 57.625 121 58.5 120.25C61.625 117.5 64.75 114.75 67.75 112C68 111.75 68.25 111.625 68.5 111.5Z" fill="#EC8E35"/>
<path id="Vector_28" d="M696 132C695.625 132.375 695.375 132.75 695 133.125C690.875 137.25 686.75 141.375 682.625 145.625C681.625 146.625 681.125 146.375 680.25 145.5C678.5 143.625 676.75 141.875 674.875 140.125C673.875 139.25 674.125 138.625 675 137.875C679.125 133.875 683.25 129.75 687.25 125.625C688.125 124.75 688.625 124.625 689.5 125.625C691.25 127.5 693.125 129.375 695 131.125C695.375 131.375 695.625 131.625 696 132Z" fill="#EC8E35"/>
<path id="Vector_29" d="M153.25 332.5C154.375 308.375 154.875 284.125 155.625 260C156.5 228.375 157.875 196.75 158.5 165C158.5 162.125 159.625 160.125 161.625 158.25C165.5 154.75 169.125 151.125 172.875 147.5C173.875 146.5 174.875 145.875 176.5 146C195.25 146.5 214.125 146.75 232.875 147.25C234.75 147.25 235.25 146.75 235.125 145C235 143.125 234.25 140.5 235.5 139.375C236.75 138.375 239.25 139 241.125 139C272.75 139.625 304.5 140.125 336.125 140.75C349.25 141 362.375 141.25 375.375 141.5C406.125 142.125 437 142.75 467.75 143.25C483.25 143.5 498.875 143.5 514.375 143.625C516.5 143.625 518.625 143.75 520.75 143.75C522.125 143.75 522.625 144.125 522.5 145.5C522.375 147.75 522.625 150.125 522.375 152.375C522.25 154 522.875 154.375 524.375 154.375C540.875 154.625 557.375 155.125 574 155.25C578.625 155.25 582 156.375 585 159.875C587.875 163.25 591.375 166.25 594.625 169.25C596.25 170.625 596.875 172.25 596.875 174.375C596.875 198.5 596.875 222.625 597 246.625C597.125 272.125 597.25 297.625 597.5 323.125C597.625 345.625 597.875 368.125 598.125 390.75C598.5 428.375 599 466 599.5 503.625C599.5 507.625 598.625 510.75 595.5 513.5C591.625 516.875 588.25 520.75 584.625 524.375C583.875 525.125 583 526.625 581.75 524.625C581.625 524.375 580.625 524.5 580.125 524.5C562 524.5 543.75 524.5 525.625 524.5C524 524.5 523.625 525 523.625 526.5C523.625 531.5 523.625 531.5 518.625 531.5C421.75 531.5 324.75 531.5 227.875 531.5C225.5 531.5 224.625 531 225 528.625C225.25 527 224.875 525.125 225.125 523.5C225.375 521.125 224.375 520.75 222.25 520.75C205.375 520.875 188.5 520.5 171.625 520.875C165.625 521 161.125 520 157.5 514.875C155.125 511.5 152 508.75 149.125 505.75C147.5 504.125 147 502.25 147.125 500C147.875 478.25 148.625 456.5 149.375 434.875C150.375 408.125 151.375 381.375 152.25 354.625C152.5 347.25 152.25 340 152.25 332.625C152.75 332.5 153 332.5 153.25 332.5ZM560.125 172.875C555.375 172.875 550.75 172.875 546 172.875V173C550.75 173 555.375 173 560.125 173C564.5 173 568.875 172.875 573.25 173.25C577.375 173.625 580.125 172.375 582.625 169C586 164.25 586.375 164.5 582 160.375C580.875 159.375 580 158.125 578.125 158.125C572.875 158.125 567.625 157.875 562.25 157.625C560.625 157.5 560 157.875 560 159.75C560.25 164.125 560.125 168.5 560.125 172.875ZM159.75 273.375C159 294.625 158.25 315.875 157.5 337C157.375 341.125 157.25 345.125 157.25 349.25C157.25 350.125 156.875 351.375 158.5 351.375C159.5 351.375 160.875 351.875 161.125 350.125C161.25 348.625 162.375 348.625 163.375 348.625C172 348 180.625 348.25 189.25 348.75C193 349 193 348.875 193 352.625C193 353 193 353.25 193 353.625C192.75 362.375 192.375 371.25 192.125 380C191.875 388.25 191.625 396.375 191.375 404.625C191.375 406.75 190.25 407.75 188.25 407.75C185 407.75 181.75 407.875 178.5 407.875C172.75 407.875 167 408 161.125 407.5C159.625 407.375 158.75 407 159 405.125C160 395.625 159.25 385.875 160 376.375C160.25 373.75 160.375 371.25 160.375 368.625C160.375 367 159.5 367 158.375 367C157.125 367 156.5 367.25 156.5 368.75C156.375 373.75 156.125 378.625 156 383.625C155 410.125 154 436.625 153.125 463.125C153 466.625 153.125 466.625 156.625 466.75C170.625 466.875 184.625 467 198.625 467.125C205.75 467.125 213 467.125 220.125 467.125C223.5 467.125 223.625 467 223.75 463.75C224.125 455.25 224.5 446.625 224.75 438.125C224.75 436.25 225.25 435.625 227.375 435.625C260.5 435.75 293.625 435.625 326.875 435.625C331.875 435.625 337 435.625 342 435.625C343.125 435.625 343.875 435.625 343.875 437.25C343.625 448.25 343.5 459.25 343.375 470.25C343.125 488.5 342.875 506.875 342.5 525.125C342.5 527 342.875 527.75 344.875 527.625C348.75 527.5 352.75 527.5 356.625 527.625C358.125 527.625 358.5 527.125 358.5 525.625C358.75 506.25 359.25 486.875 359.375 467.5C359.375 465 360.125 464.125 362.625 464.25C370.625 464.375 378.625 464.375 386.625 464.375C392.75 464.375 393.125 464.875 393 471.125C392.75 489.375 392.5 507.625 392.25 525.875C392.25 527.25 392.5 527.875 394.125 527.875C398 527.875 401.75 527.875 405.625 528.25C407.875 528.375 408.375 527.625 408.375 525.5C408.625 496.375 409.125 467.25 409.375 438.125C409.375 436.125 409.875 435.625 411.875 435.625C431.625 435.75 451.5 435.75 471.25 435.625C488.625 435.625 505.875 435.625 523.25 436.375C525.375 436.5 526 437.125 526 439.25C525.875 449.125 526 459 525.875 468.75C525.875 470.25 526.25 470.875 527.875 470.75C549.75 470.625 571.625 471.25 593.625 471.625C596.375 471.625 596.875 471.25 596.875 468.375C596.5 454.75 597.5 441 596.25 427.375C595.5 419.5 596 411.625 595.875 403.75C595.75 394.375 595.5 385 595.25 375.625C595.25 374.875 595.75 373.75 594 373.875C592.75 374 592 374.25 592.125 375.625C592.125 376.375 592.125 377.25 592.125 378.125C592.25 388.875 592.25 399.625 592.375 410.375C592.375 413.5 591.75 414.125 588.75 414.125C580.25 414 571.625 413.75 563.125 413.625C561.25 413.625 560.75 413 560.625 411.125C560.125 393.5 560.25 376 560.25 358.375C560.25 355.625 561 354.875 563.75 354.875C571.625 355 579.375 355.25 587.25 355.375C589.5 355.375 591.5 355.625 592.375 358.125C592.625 358.875 593.25 359.25 594.125 359C595.125 358.75 595.25 358.125 595.25 357.375C595.25 356.75 595.25 356.125 595.375 355.375C596.25 343.875 595 332.5 595.125 321C595.375 298.25 594.75 275.375 595 252.625C595.125 237.75 595 223 595 208.125C595 207 594.875 205.875 594.75 204.75C594.625 203.5 594 203.125 592.875 203.125C571.25 203 549.625 202.75 527.875 202.5C526.25 202.5 525.875 203 525.875 204.625C526 212.375 525.875 220.125 525.875 227.875C525.875 231.875 525.875 231.875 522 231.75C486.25 231.125 450.5 230.375 414.75 229.75C412.625 229.75 412.25 229 412.375 227.125C412.75 200.125 413.125 173.125 413.5 146C413.5 144.375 413.125 143.875 411.5 144C407.625 144.125 403.875 144.125 400 144C398 143.875 397.5 144.75 397.5 146.5C397.5 153.625 397.25 160.875 397.125 168C397 178.5 396.875 189 396.625 199.5C396.5 203.5 396.25 203.75 392.375 203.75C384.125 203.625 375.75 203.5 367.5 203.375C364.125 203.25 363.5 202.625 363.625 199.25C363.75 191.625 363.75 184.125 363.875 176.5C364 166.375 364.125 156.125 364.375 146C364.375 144 364 143 361.75 143.25C358.875 143.5 355.875 143.25 353 143.25C349.375 143.25 349.375 143.25 349.25 147C348.75 173.5 348.25 199.875 347.875 226.375C347.875 228.125 347.375 228.5 345.625 228.375C331.625 228 317.625 227.75 303.625 227.5C280.375 227.125 257.25 226.625 234 226.25C232.125 226.25 231.75 225.75 231.75 223.875C231.875 215.375 231.75 206.75 231.875 198.25C231.875 196 231.25 195.5 229.125 195.5C208.75 195.75 188.375 195.5 168.125 194.75C162.75 194.5 162.75 194.5 162.75 200C161.625 224.25 160.625 248.75 159.75 273.375ZM521.875 484.25C522.125 469.875 522.375 455.5 522.75 441C522.75 439.25 522.25 438.75 520.625 438.875C504.125 438.875 487.625 438.875 471 438.875C469.25 438.875 468.875 439.5 468.875 441.125C468.25 469.875 467.5 498.75 466.75 527.5C466.75 529.125 467 529.625 468.75 529.625C485.625 529.625 502.5 529.625 519.375 529.625C520.875 529.625 521.25 529.25 521.375 527.75C521.25 513.25 521.625 498.75 521.875 484.25ZM229.375 484.5C229 498.75 228.75 513 228.25 527.25C228.125 529.25 228.75 529.625 230.625 529.625C240.75 529.5 250.875 529.625 260.875 529.625C267.5 529.625 274.125 529.625 280.625 529.625C282.125 529.625 282.5 529.25 282.5 527.75C282.5 523.5 282.75 519.25 282.875 515.125C283.375 490.5 283.75 466 284.375 441.375C284.375 439.375 283.875 439 282 439C265.75 439.125 249.375 439.125 233.125 439C230.875 439 230.375 439.75 230.375 441.75C230.125 455.875 229.75 470.125 229.375 484.5ZM285.625 484.125C285.25 498.375 285 512.625 284.5 526.875C284.5 528.875 284.75 529.625 287 529.625C302.75 529.5 318.625 529.5 334.375 529.625C336.75 529.625 337.25 528.875 337.25 526.75C337.25 517.625 337.375 508.5 337.5 499.375C337.75 479.875 338 460.5 338.375 441C338.375 439.625 338.25 438.75 336.5 438.875C320.625 439 304.75 439 288.875 438.875C287.25 438.875 286.875 439.5 286.875 441C286.75 446 286.5 450.875 286.5 455.875C286.25 465.25 285.875 474.75 285.625 484.125ZM413.875 484.25C413.5 498.625 413.125 513 412.75 527.375C412.75 528.875 412.875 529.5 414.625 529.5C430.875 529.5 447.125 529.5 463.5 529.5C465.125 529.5 465.5 529 465.5 527.375C465.875 498.625 466.125 469.75 466.625 441C466.625 439.125 466.125 438.75 464.375 438.75C448.75 438.75 433.125 438.875 417.5 438.75C415.75 438.75 415.125 439.125 415.125 441C414.625 455.5 414.25 469.875 413.875 484.25ZM341 184.5C341.375 184.5 341.875 184.5 342.25 184.5C342.25 171.5 342.25 158.5 342.25 145.5C342.25 143.75 342 143.125 340 143.125C322.75 143 305.5 142.75 288.25 142.5C286.375 142.5 286 142.875 286 144.75C285.875 158.375 285.5 172.125 285.25 185.75C285.125 197.875 285 210 284.875 222.125C284.875 223.5 285.125 224.125 286.75 224.125C304.125 224.625 321.375 225.125 338.75 225.375C340.5 225.375 341.125 225 341 223.125C341 210.25 341 197.375 341 184.5ZM467.25 186C467.625 186 468 186 468.25 186C468.25 173.125 468.125 160.125 468.375 147.25C468.375 144.875 467.875 144.375 465.5 144.375C450.875 144.375 436.25 144.25 421.625 143.875C418.875 143.75 418.5 144.625 418.5 147C418.625 153.5 418.375 160 418.375 166.5C418.125 186.25 417.875 206 417.5 225.75C417.5 227.125 417.875 227.5 419.25 227.5C434.75 227.625 450.125 227.75 465.625 228C467.125 228 467.375 227.5 467.375 226.25C467.125 212.875 467.25 199.375 467.25 186ZM519.875 187.125C520.25 187.125 520.625 187.125 521 187.125C521 174 521 160.75 521 147.625C521 146 520.625 145.375 518.875 145.375C503.875 145.125 488.875 144.875 474 144.375C471.5 144.25 471.125 145 471.125 147.25C471.25 155.125 471.25 163 471.125 171C471 189.125 470.5 207.25 470.75 225.5C470.75 227.375 471.125 228.125 473.25 228.125C488 228.375 502.75 228.75 517.5 229.125C519.25 229.125 519.875 228.875 519.875 226.875C519.875 213.75 519.875 200.375 519.875 187.125ZM237.25 182.875C237 195.5 236.875 208.125 236.375 220.75C236.25 223.125 237.125 223.625 239.125 223.5C252.75 223.375 266.5 224.25 280.125 224C281.625 224 282 223.75 282 222.125C282.375 196.125 282.75 170.25 283.125 144.25C283.125 142.875 282.875 142.5 281.375 142.375C267.5 142.25 253.75 142 239.875 141.875C238.375 141.875 238 142.25 238 143.75C237.875 156.875 237.5 169.875 237.25 182.875ZM182.875 503V503.125C189 503.125 195.25 503.125 201.375 503.125C203 503.125 203.5 502.75 203.5 501.125C203.375 491.875 203.375 482.625 203.5 473.25C203.5 471.625 203 471 201.25 471C185.375 471 169.5 471 153.625 471C151.875 471 151.375 471.5 151.375 473.25C151.375 479.375 151.5 485.625 150.875 491.75C150.375 497.625 151.625 502.375 156 506.375C157.5 507.75 158.125 508.25 159.375 506.375C161.125 503.75 163.5 502.75 166.75 502.875C172.25 503.25 177.625 503 182.875 503ZM549 490.875C548.875 490.875 548.875 490.875 548.75 490.875C548.75 495.25 548.875 499.625 548.75 504.125C548.75 506.125 549.25 506.75 551.25 506.75C561 506.625 570.625 506.75 580.375 506.625C583.25 506.625 585.375 507.375 587.375 509.5C590.125 512.625 590.25 512.5 592.75 509.375C593.625 508.25 594.5 507.125 595.375 506.125C596.125 505.25 596.375 504.375 596.375 503.25C596.125 494.75 596.375 486.125 595.875 477.625C595.75 476.25 595.5 475.625 594 475.625C579.625 475.5 565.375 475.25 551 475C549.375 475 548.875 475.5 548.875 477.125C549 481.75 549 486.25 549 490.875ZM192.125 190.5C192.125 190.625 192.125 190.875 192.125 191C198.125 191 204.125 191 210.125 191C211.625 191 212.25 190.625 212.25 189C212.125 181.625 212.25 174.25 212.25 166.75C212.25 165.25 211.875 164.75 210.375 164.75C200.125 164.25 189.75 163.5 179.5 163C177.625 162.875 176.125 162.5 174.875 161C173.25 159.125 171.625 155.875 169.625 156.125C167.625 156.25 166 159.25 164.125 161C163 162 162.25 163 162.25 164.75C162 172.625 161.5 180.5 161 188.375C160.875 190.125 161.5 190.625 163.125 190.625C172.75 190.5 182.375 190.5 192.125 190.5ZM562.5 174.375C557.5 174.375 552.375 174.375 547.375 174.375C546.25 174.375 545.375 174.375 545.375 176C545.25 183.375 545.125 190.625 545 198C545 199.375 545.375 199.75 546.75 199.875C561.625 200.125 576.5 200.375 591.375 200.75C593 200.75 593.5 200.25 593.5 198.625C593.375 192 593.125 185.375 593.625 178.875C594 173.75 592.375 170.125 588.5 167.125C587.25 166.125 586.625 165.875 585.625 167.25C584.25 169.125 582.625 170.75 581.25 172.5C580.125 174 578.875 174.625 576.875 174.5C572.125 174.25 567.375 174.375 562.5 174.375ZM547.375 498.5C547.625 498.5 547.75 498.5 548 498.5C548 491.25 548 484 548 476.75C548 475 547.5 474.5 545.875 474.625C539.875 474.75 533.875 474.75 527.75 474.625C526.375 474.625 525.75 474.875 525.75 476.5C525.75 491.25 525.75 506 525.75 520.75C525.75 522.25 526.125 522.75 527.625 522.75C533.625 522.625 539.5 522.625 545.5 522.75C547 522.75 547.375 522.375 547.375 520.875C547.25 513.25 547.375 505.875 547.375 498.5ZM204.75 494.375C204.75 501.5 204.75 508.75 204.75 515.875C204.75 517.25 205 517.875 206.625 517.875C212.5 517.75 218.5 517.75 224.375 517.875C225.875 517.875 226.375 517.5 226.375 516C226.5 501.75 226.625 487.375 226.875 473.125C226.875 471.625 226.5 471 224.875 471C218.875 471.125 212.875 471.125 206.875 471C205.125 471 204.75 471.625 204.75 473.25C204.875 480.25 204.75 487.375 204.75 494.375ZM543.875 178.625C544 178.625 544.25 178.625 544.375 178.625C544.375 172.125 544.375 165.625 544.375 159.125C544.375 157.625 544 157.125 542.5 157.25C537.125 157.375 531.75 157.375 526.375 157.25C524.75 157.25 524.375 157.75 524.375 159.375C524.375 172.25 524.375 185.25 524.375 198.125C524.375 199.5 524.625 200.125 526.25 200.125C531.5 200 536.625 200 541.875 200.125C543.625 200.125 543.875 199.5 543.875 198C543.875 191.375 543.875 185 543.875 178.625ZM234.625 171.125C234.75 171.125 235 171.125 235.125 171.125C235.125 164.5 235.125 158 235.125 151.375C235.125 150 234.75 149.5 233.375 149.625C228 149.75 222.625 149.75 217.25 149.625C215.625 149.625 215.125 150.125 215.125 151.75C215.125 164.625 215.125 177.625 215.125 190.5C215.125 192 215.625 192.375 217.125 192.375C222.375 192.25 227.5 192.25 232.75 192.375C234.25 192.375 234.625 192 234.625 190.5C234.625 184 234.625 177.625 234.625 171.125ZM187.875 148.375C184.25 148.375 180.75 148.375 177.125 148.375C176.375 148.375 175.625 148.375 174.875 149C169.875 153.375 169.875 153.875 174.25 158.625C175 159.5 175.75 160.25 176.5 161.125C177 161.75 177.625 162 178.375 162C185.25 162.125 192 162.375 198.875 162.625C200.125 162.625 200.625 162.25 200.5 161C200.375 157.375 200.375 153.875 200.5 150.25C200.5 148.625 199.875 148.375 198.5 148.375C195.125 148.5 191.5 148.375 187.875 148.375ZM176.625 504.375C176.625 504.25 176.625 504.25 176.625 504.125C174 504.125 171.25 504.5 168.625 504C164.625 503.375 161.875 505.125 159.5 508C158.5 509.25 158.625 509.875 159.625 510.75C161.25 512.375 162.875 514 164.375 515.625C165 516.375 165.75 516.5 166.75 516.625C174 516.875 181.375 517.125 188.625 517.5C189.75 517.5 190.25 517.25 190.125 516C190 512.625 190 509.375 190.125 506C190.125 504.5 189.625 504.25 188.25 504.25C184.5 504.5 180.625 504.375 176.625 504.375ZM573 508C569.75 508 566.5 508 563.25 508C561.875 508 561.375 508.375 561.375 509.75C561.5 513.25 561.5 516.75 561.375 520.25C561.375 521.5 561.625 522.125 563.125 522.125C569 522 574.875 522.125 580.625 522.125C581.375 522.125 582 522 582.5 521.375C584.375 519 586.375 516.75 588.25 514.5C588.875 513.75 588.875 513.25 588.125 512.5C585.625 509.75 583.125 507.25 578.875 508.125C577.125 508.25 575 508 573 508ZM559 165H559.125C559.125 163 559.125 161.125 559.125 159.125C559.125 158.125 558.75 157.75 557.75 157.75C554.375 157.75 551.125 157.875 547.75 157.75C546.625 157.75 546.125 158.125 546.25 159.25C546.25 161.5 546.25 163.625 546.25 165.875C546.25 167.75 545.375 170.375 546.625 171.5C547.75 172.5 550.375 171.875 552.25 171.875C554.5 171.75 557.5 172.875 558.75 171.375C559.875 170 559 167.125 559 165ZM201.625 511.875H201.75C201.75 510.375 201.625 509 201.75 507.5C201.875 506.125 201.5 505.375 199.875 505.5C197.5 505.625 195.125 505.625 192.75 505.5C191.25 505.375 191 506 191 507.375C191.125 509.75 191 512.25 191 514.625C191 518.375 191 518.5 194.875 518.375C197 518.375 199.875 519.375 201.125 517.875C202.5 516.75 201.625 514 201.625 511.875ZM549.75 515.125C549.75 517.125 549.875 518.75 549.75 520.375C549.625 521.75 550.25 522 551.5 522C553.875 521.875 556.375 521.875 558.75 522C560 522 560.25 521.625 560.25 520.5C560.125 518.125 560.25 515.625 560.25 513.25C560.25 509.25 560.25 509.125 556.125 509.25C554.125 509.25 551.5 508.375 550.25 509.625C548.75 510.75 550 513.5 549.75 515.125ZM212.375 156.375C212.375 154.5 212.375 152.875 212.375 151.375C212.375 150.25 212.125 149.625 210.75 149.625C208.25 149.75 205.875 149.75 203.375 149.625C202 149.625 201.75 150.125 201.75 151.375C201.875 153.875 201.75 156.25 201.75 158.75C201.75 162.625 201.75 162.75 205.75 162.625C207.875 162.625 210.625 163.5 211.875 162.25C213.25 160.75 212.125 158 212.375 156.375Z" fill="#050404"/>
<path id="Vector_30" d="M159.75 273.375C160.625 248.75 161.625 224.25 162 199.625C162.125 194.25 162.125 194.25 167.375 194.375C187.75 195.125 208.125 195.375 228.375 195.125C230.5 195.125 231.25 195.625 231.125 197.875C231 206.375 231.125 215 231 223.5C231 225.25 231.375 225.75 233.25 225.875C256.5 226.25 279.625 226.625 302.875 227.125C316.875 227.375 330.875 227.625 344.875 228C346.5 228 347 227.625 347.125 226C347.5 199.5 348 173.125 348.5 146.625C348.625 143 348.5 143 352.25 142.875C355.125 142.875 358.125 143.125 361 142.875C363.25 142.75 363.625 143.75 363.625 145.625C363.375 155.75 363.25 166 363.125 176.125C363 183.75 362.875 191.25 362.875 198.875C362.875 202.25 363.375 202.875 366.75 203C375 203.125 383.375 203.25 391.625 203.375C395.5 203.375 395.75 203.125 395.875 199.125C396 188.625 396.125 178.125 396.375 167.625C396.5 160.5 396.625 153.25 396.75 146.125C396.75 144.375 397.125 143.5 399.25 143.625C403.125 143.75 406.875 143.75 410.75 143.625C412.375 143.625 412.75 144.125 412.75 145.625C412.375 172.625 412 199.625 411.625 226.75C411.625 228.625 411.875 229.375 414 229.375C449.75 230 485.5 230.625 521.25 231.375C525.125 231.5 525.125 231.5 525.125 227.5C525.125 219.75 525.125 212 525.125 204.25C525.125 202.75 525.5 202.125 527.125 202.125C548.75 202.375 570.375 202.5 592.125 202.75C593.375 202.75 593.875 203.125 594 204.375C594.125 205.5 594.25 206.625 594.25 207.75C594.25 222.625 594.375 237.375 594.25 252.25C594 275 594.625 297.875 594.375 320.625C594.25 332.125 595.5 343.5 594.625 355C594.625 355.625 594.5 356.25 594.5 357C594.5 357.75 594.375 358.375 593.375 358.625C592.5 358.875 591.875 358.5 591.625 357.75C590.75 355.25 588.875 355 586.5 355C578.625 355 570.875 354.625 563 354.5C560.25 354.5 559.5 355.125 559.5 358C559.5 375.625 559.375 393.125 559.875 410.75C559.875 412.625 560.375 413.125 562.375 413.25C570.875 413.25 579.5 413.625 588 413.75C591.125 413.75 591.625 413.125 591.625 410C591.625 399.25 591.5 388.5 591.375 377.75C591.375 376.875 591.5 376.125 591.375 375.25C591.25 373.875 592 373.625 593.25 373.5C594.875 373.375 594.375 374.5 594.5 375.25C594.75 384.625 595 394 595.125 403.375C595.25 411.25 594.875 419.25 595.5 427C596.75 440.75 595.75 454.375 596.125 468C596.25 470.875 595.75 471.25 592.875 471.25C571 471 549.125 470.25 527.125 470.375C525.5 470.375 525.125 469.875 525.125 468.375C525.25 458.5 525.125 448.625 525.25 438.875C525.25 436.75 524.625 436.125 522.5 436C505.125 435.25 487.875 435.25 470.5 435.25C450.75 435.25 430.875 435.25 411.125 435.25C409.125 435.25 408.625 435.75 408.625 437.75C408.375 466.875 408 496 407.625 525.125C407.625 527.25 407.125 528 404.875 527.875C401.125 527.625 397.25 527.5 393.375 527.5C391.75 527.5 391.5 526.875 391.5 525.5C391.75 507.25 391.875 489 392.25 470.75C392.375 464.5 392 464 385.875 464C377.875 464 369.875 464 361.875 463.875C359.5 463.875 358.75 464.75 358.625 467.125C358.375 486.5 358 505.875 357.75 525.25C357.75 526.75 357.375 527.25 355.875 527.25C352 527.125 348 527.125 344.125 527.25C342.125 527.375 341.75 526.625 341.75 524.75C342.125 506.5 342.375 488.125 342.625 469.875C342.75 458.875 342.875 447.875 343.125 436.875C343.125 435.25 342.5 435.25 341.25 435.25C336.25 435.25 331.125 435.25 326.125 435.25C293 435.25 259.875 435.25 226.625 435.25C224.5 435.25 224.125 435.875 224 437.75C223.75 446.25 223.375 454.875 223 463.375C222.875 466.625 222.75 466.75 219.375 466.75C212.25 466.75 205 466.75 197.875 466.75C183.875 466.625 169.875 466.5 155.875 466.375C152.375 466.375 152.25 466.375 152.375 462.75C153.375 436.25 154.25 409.75 155.25 383.25C155.375 378.25 155.75 373.375 155.75 368.375C155.75 366.875 156.375 366.625 157.625 366.625C158.75 366.625 159.625 366.625 159.625 368.25C159.625 370.875 159.5 373.5 159.25 376C158.5 385.625 159.25 395.25 158.25 404.75C158 406.625 158.875 407 160.375 407.125C166.125 407.75 171.875 407.5 177.75 407.5C181 407.5 184.25 407.5 187.5 407.375C189.625 407.375 190.625 406.375 190.625 404.25C190.875 396 191.125 387.875 191.375 379.625C191.625 370.875 192 362 192.25 353.25C192.25 352.875 192.25 352.625 192.25 352.25C192.25 348.5 192.25 348.5 188.5 348.375C179.875 347.875 171.25 347.625 162.625 348.25C161.5 348.375 160.5 348.375 160.375 349.75C160.25 351.5 158.875 351 157.75 351C156.125 351 156.5 349.75 156.5 348.875C156.5 344.75 156.625 340.75 156.75 336.625C158.25 315.75 159 294.625 159.75 273.375Z" fill="#FEFEFE"/>
<path id="Vector_31" d="M521.875 484.25C521.625 498.75 521.25 513.25 521.125 527.75C521.125 529.25 520.625 529.625 519.125 529.625C502.25 529.625 485.375 529.625 468.5 529.625C466.875 529.625 466.5 529.125 466.5 527.5C467.25 498.75 468 469.875 468.625 441.125C468.625 439.5 469 438.875 470.75 438.875C487.25 439 503.75 438.875 520.375 438.875C522 438.875 522.625 439.25 522.5 441C522.375 455.375 522.125 469.875 521.875 484.25Z" fill="#A5A5A5"/>
<path id="fc_4" d="M229.375 484.5C229.75 470.125 230.125 455.875 230.375 441.5C230.375 439.5 230.875 438.75 233.125 438.75C249.375 438.875 265.75 438.875 282 438.75C283.875 438.75 284.5 439.125 284.375 441.125C283.875 465.75 283.375 490.25 282.875 514.875C282.75 519.125 282.5 523.375 282.5 527.5C282.5 529 282.125 529.5 280.625 529.375C274 529.25 267.375 529.375 260.875 529.375C250.75 529.375 240.625 529.375 230.625 529.375C228.75 529.375 228.125 529 228.25 527C228.75 513 229 498.75 229.375 484.5Z" fill="#A5A5A5"/>
<path id="fc_5" d="M285.625 484.125C285.875 474.625 286.25 465.25 286.375 455.75C286.375 450.75 286.625 445.875 286.75 440.875C286.75 439.375 287.125 438.75 288.75 438.75C304.625 438.75 320.5 438.875 336.375 438.75C338.125 438.75 338.25 439.5 338.25 440.875C338 460.375 337.625 479.75 337.375 499.25C337.25 508.375 337.125 517.5 337.125 526.625C337.125 528.75 336.625 529.5 334.25 529.5C318.5 529.375 302.625 529.375 286.875 529.5C284.5 529.5 284.25 528.75 284.375 526.75C284.875 512.625 285.25 498.375 285.625 484.125Z" fill="#A5A5A5"/>
<path id="Vector_32" d="M413.875 484.25C414.25 469.875 414.625 455.5 415 441C415 439.125 415.625 438.75 417.375 438.75C433 438.875 448.625 438.875 464.25 438.75C466 438.75 466.625 439.125 466.5 441C466.125 469.75 465.75 498.625 465.375 527.375C465.375 528.875 465 529.5 463.375 529.5C447.125 529.5 430.875 529.5 414.5 529.5C412.75 529.5 412.625 528.875 412.625 527.375C413.125 513 413.5 498.625 413.875 484.25Z" fill="#A5A5A5"/>
<path id="sh_ict_2" d="M341 184.5C341 197.375 341 210.25 341 223.125C341 225 340.5 225.375 338.75 225.375C321.375 225.125 304.125 224.625 286.75 224.125C285.125 224.125 284.875 223.5 284.875 222.125C285 210 285.125 197.875 285.25 185.75C285.5 172.125 285.75 158.375 286 144.75C286 142.875 286.5 142.5 288.25 142.5C305.5 142.75 322.75 143 340 143.125C342 143.125 342.25 143.875 342.25 145.5C342.125 158.5 342.25 171.5 342.25 184.5C341.875 184.5 341.5 184.5 341 184.5Z" fill="#FEFEFE"/>
<path id="Vector_33" d="M467.25 186C467.25 199.375 467.25 212.875 467.25 226.25C467.25 227.625 467 228.125 465.5 228C450 227.75 434.625 227.625 419.125 227.5C417.75 227.5 417.375 227.125 417.375 225.75C417.625 206 418 186.25 418.25 166.5C418.375 160 418.5 153.5 418.375 147C418.375 144.625 418.75 143.75 421.5 143.875C436.125 144.25 450.75 144.375 465.375 144.375C467.75 144.375 468.25 145 468.25 147.25C468.125 160.125 468.125 173.125 468.125 186C467.875 186 467.5 186 467.25 186Z" fill="#FEFEFE"/>
<path id="Vector_34" d="M519.875 187.125C519.875 200.375 519.875 213.625 519.875 226.875C519.875 228.75 519.25 229.125 517.5 229.125C502.75 228.75 488 228.375 473.25 228.125C471.125 228.125 470.75 227.375 470.75 225.5C470.5 207.375 471 189.25 471.125 171C471.125 163.125 471.25 155.25 471.125 147.25C471.125 145 471.5 144.25 474 144.375C489 144.875 504 145.125 518.875 145.375C520.625 145.375 521 146 521 147.625C520.875 160.75 521 174 521 187.125C520.625 187.125 520.25 187.125 519.875 187.125Z" fill="#FEFEFE"/>
<path id="sh_ict_1" d="M237.25 182.875C237.5 169.875 237.875 156.875 238.125 143.875C238.125 142.375 238.5 142 240 142C253.875 142.25 267.625 142.375 281.5 142.5C282.875 142.5 283.25 143 283.25 144.375C282.875 170.375 282.5 196.25 282.125 222.25C282.125 223.75 281.625 224 280.25 224.125C266.625 224.375 252.875 223.5 239.25 223.625C237.25 223.625 236.375 223.25 236.5 220.875C236.875 208 237 195.5 237.25 182.875Z" fill="#FEFEFE"/>
<path id="Vector_35" d="M182.875 503C177.625 503 172.25 503.25 167 502.875C163.625 502.625 161.375 503.75 159.625 506.375C158.375 508.25 157.625 507.75 156.25 506.375C151.875 502.375 150.5 497.625 151.125 491.75C151.75 485.625 151.625 479.375 151.625 473.25C151.625 471.625 152.125 471 153.875 471C169.75 471 185.625 471 201.5 471C203.25 471 203.75 471.5 203.75 473.25C203.625 482.5 203.625 491.75 203.75 501.125C203.75 502.75 203.25 503.125 201.625 503.125C195.5 503 189.25 503.125 183.125 503.125C182.875 503.125 182.875 503.125 182.875 503Z" fill="#934C4A"/>
<path id="Vector_36" d="M549 490.875C549 486.375 549 481.75 549 477.25C549 475.75 549.375 475.125 551.125 475.125C565.5 475.375 579.75 475.625 594.125 475.75C595.625 475.75 596 476.375 596 477.75C596.5 486.25 596.25 494.875 596.5 503.375C596.5 504.5 596.25 505.375 595.5 506.25C594.5 507.25 593.75 508.375 592.875 509.5C590.375 512.5 590.25 512.625 587.5 509.625C585.5 507.375 583.375 506.625 580.5 506.75C570.75 506.875 561.125 506.75 551.375 506.875C549.25 506.875 548.75 506.25 548.875 504.25C549 499.875 548.875 495.5 548.875 491C548.875 490.875 548.875 490.875 549 490.875Z" fill="#934C4A"/>
<path id="Vector_37" d="M192.125 190.5C182.5 190.5 172.75 190.5 163.125 190.5C161.5 190.5 160.875 190 161 188.25C161.5 180.375 162 172.5 162.25 164.625C162.375 163 163.125 161.875 164.125 160.875C166 159.125 167.625 156.125 169.625 156C171.625 155.875 173.25 159.125 174.875 160.875C176.25 162.375 177.625 162.75 179.5 162.875C189.75 163.375 200.125 164 210.375 164.625C211.875 164.75 212.25 165.25 212.25 166.625C212.25 174 212.125 181.375 212.25 188.875C212.25 190.5 211.625 190.875 210.125 190.875C204.125 190.75 198.125 190.875 192.125 190.875C192.125 190.875 192.125 190.625 192.125 190.5Z" fill="#934C4A"/>
<path id="Vector_38" d="M562.5 174.375C567.25 174.375 572.125 174.25 576.875 174.375C578.75 174.375 580.125 173.75 581.25 172.375C582.625 170.625 584.25 169 585.625 167.125C586.625 165.75 587.25 166 588.5 167C592.375 170 594 173.75 593.625 178.75C593.125 185.25 593.5 191.875 593.5 198.5C593.5 200.125 593 200.625 591.375 200.625C576.5 200.25 561.625 200 546.75 199.75C545.375 199.75 544.875 199.25 545 197.875C545.125 190.5 545.375 183.25 545.375 175.875C545.375 174.25 546.25 174.25 547.375 174.25C552.5 174.375 557.5 174.375 562.5 174.375Z" fill="#934C4A"/>
<path id="Vector_39" d="M547.375 498.5C547.375 505.875 547.375 513.375 547.375 520.75C547.375 522.25 547 522.75 545.5 522.625C539.5 522.5 533.625 522.5 527.625 522.625C526.125 522.625 525.75 522.125 525.75 520.625C525.75 505.875 525.75 491.125 525.75 476.375C525.75 474.75 526.375 474.5 527.75 474.5C533.75 474.5 539.75 474.625 545.875 474.5C547.625 474.5 548.125 475 548 476.625C547.875 483.875 548 491.125 548 498.375C547.75 498.5 547.5 498.5 547.375 498.5Z" fill="#EC8E35"/>
<path id="Vector_40" d="M204.75 494.375C204.75 487.25 204.75 480.25 204.75 473.125C204.75 471.5 205.125 470.875 206.875 470.875C212.875 471 218.875 471 224.875 470.875C226.5 470.875 226.875 471.375 226.875 473C226.625 487.25 226.5 501.625 226.375 515.875C226.375 517.375 225.875 517.75 224.375 517.75C218.5 517.625 212.5 517.625 206.625 517.75C205 517.75 204.75 517.25 204.75 515.75C204.875 508.75 204.75 501.5 204.75 494.375Z" fill="#EC8E35"/>
<path id="Vector_41" d="M543.875 178.625C543.875 185 543.875 191.5 543.875 197.875C543.875 199.375 543.625 200.125 541.875 200C536.625 199.875 531.5 199.875 526.25 200C524.625 200 524.375 199.375 524.375 198C524.375 185.125 524.375 172.125 524.375 159.25C524.375 157.75 524.75 157.125 526.375 157.125C531.75 157.25 537.125 157.25 542.5 157.125C544 157.125 544.375 157.5 544.375 159C544.25 165.5 544.375 172 544.375 178.5C544.25 178.625 544.125 178.625 543.875 178.625Z" fill="#EC8E35"/>
<path id="Vector_42" d="M234.625 171.125C234.625 177.5 234.625 184 234.625 190.375C234.625 191.875 234.25 192.375 232.75 192.25C227.5 192.125 222.375 192.125 217.125 192.25C215.625 192.25 215.125 191.875 215.125 190.375C215.125 177.5 215.125 164.5 215.125 151.625C215.125 150 215.625 149.5 217.25 149.5C222.625 149.625 228 149.625 233.375 149.5C234.75 149.5 235.125 149.875 235.125 151.25C235 157.875 235.125 164.375 235.125 171C235 171.125 234.875 171.125 234.625 171.125Z" fill="#EC8E35"/>
<path id="Vector_43" d="M187.875 148.375C191.5 148.375 195 148.375 198.625 148.375C200 148.375 200.625 148.625 200.625 150.25C200.5 153.875 200.5 157.375 200.625 161C200.625 162.25 200.25 162.625 199 162.625C192.125 162.375 185.375 162.25 178.5 162C177.75 162 177.125 161.75 176.625 161.125C175.875 160.25 175.125 159.5 174.375 158.625C170 153.875 170 153.375 175 149C175.75 148.375 176.5 148.375 177.25 148.375C180.75 148.375 184.375 148.375 187.875 148.375Z" fill="#EC8E35"/>
<path id="Vector_44" d="M176.625 504.375C180.5 504.375 184.375 504.375 188.25 504.375C189.625 504.375 190.125 504.625 190.125 506.125C190 509.5 190 512.75 190.125 516.125C190.125 517.375 189.75 517.625 188.625 517.625C181.375 517.25 174 517 166.75 516.75C165.75 516.75 165 516.5 164.375 515.75C162.875 514.125 161.25 512.375 159.625 510.875C158.625 509.875 158.5 509.375 159.5 508.125C162 505.25 164.625 503.5 168.625 504.125C171.25 504.5 174 504.25 176.625 504.25V504.375Z" fill="#EC8E35"/>
<path id="Vector_45" d="M560.125 172.875C560.125 168.5 560.25 164.125 560.125 159.75C560.125 158 560.625 157.625 562.375 157.625C567.625 157.875 572.875 158.125 578.25 158.125C580.125 158.125 581 159.375 582.125 160.375C586.5 164.375 586.125 164.25 582.75 169C580.25 172.375 577.5 173.625 573.375 173.25C569 172.875 564.625 173 560.25 173C560.125 173 560.125 172.875 560.125 172.875Z" fill="#EC8E35"/>
<path id="Vector_46" d="M573 508C575 508 577.125 508.375 579.125 507.875C583.375 507 585.875 509.5 588.375 512.25C589.125 513 589.125 513.5 588.5 514.25C586.5 516.5 584.625 518.875 582.75 521.125C582.25 521.75 581.625 522 580.875 521.875C575 521.875 569.125 521.875 563.375 521.875C561.875 521.875 561.625 521.25 561.625 520C561.75 516.5 561.75 513 561.625 509.5C561.625 508.125 562.125 507.75 563.5 507.75C566.5 508 569.75 508 573 508Z" fill="#EC8E35"/>
<path id="Vector_47" d="M559.161 165.545C559.161 167.757 560.077 170.879 558.899 172.18C557.59 173.741 554.449 172.57 552.094 172.7C550.13 172.7 547.382 173.35 546.204 172.31C544.896 171.269 545.812 168.537 545.812 166.456C545.681 164.114 545.812 161.903 545.812 159.561C545.812 158.39 546.204 158 547.382 158C550.916 158.13 554.318 158 557.852 158C559.03 158 559.291 158.39 559.291 159.431C559.291 161.512 559.291 163.464 559.291 165.545H559.161Z" fill="#D8D8D8"/>
<path id="Vector_48" d="M201.625 511.875C201.625 514 202.5 516.75 201.375 518C200.125 519.375 197.25 518.375 195.125 518.5C191.25 518.625 191.25 518.5 191.25 514.75C191.25 512.375 191.375 509.875 191.25 507.5C191.25 506.25 191.5 505.625 193 505.625C195.375 505.75 197.75 505.75 200.125 505.625C201.75 505.5 202.125 506.125 202 507.625C201.875 509.125 202 510.5 202 512C201.75 511.875 201.75 511.875 201.625 511.875Z" fill="#D8D8D8"/>
<path id="Vector_49" d="M549.75 515.125C550 513.375 548.75 510.75 550.25 509.5C551.5 508.25 554.125 509.25 556.125 509.125C560.25 509.125 560.25 509.125 560.25 513.125C560.25 515.5 560.25 518 560.25 520.375C560.25 521.5 560 522 558.75 521.875C556.375 521.75 553.875 521.75 551.5 521.875C550.25 521.875 549.75 521.5 549.75 520.25C549.75 518.75 549.75 517.125 549.75 515.125Z" fill="#D8D8D8"/>
<path id="Vector_50" d="M212.375 156.375C212.25 158.125 213.25 160.75 212 162.125C210.75 163.5 208 162.5 205.875 162.5C201.875 162.625 201.875 162.5 201.875 158.625C201.875 156.125 201.875 153.75 201.875 151.25C201.875 150 202.125 149.5 203.5 149.5C206 149.625 208.375 149.625 210.875 149.5C212.25 149.5 212.5 150.125 212.5 151.25C212.25 152.875 212.375 154.375 212.375 156.375Z" fill="#D8D8D8"/>
<path id="Vector_51" d="M560.125 172.875V173C555.375 173 550.75 173 546 173V172.875C550.75 172.875 555.5 172.875 560.125 172.875Z" fill="#934C4A"/>
<script> const interactiveElements = document.querySelectorAll(".interactive-element");

        interactiveElements.forEach(element => {
            element.addEventListener("mouseover", function() {
                // Update the SVG element when a hover event is detected
                this.setAttribute("fill", "green");
            });

            element.addEventListener("mouseout", function() {
                // Update the SVG element when the hover event ends
                this.setAttribute("fill", "#A5A5A5");
            });
        });
</script>
<g id="stairs_not_accessible">
<path d="M668.5 463.5H652.5V482L689.5 517.5L704 501.5L668.5 463.5Z" fill="#D9D9D9"/>
<path d="M96.5 457H81L43 494L58 510L96.5 474.5V457Z" fill="#D9D9D9"/>
<path d="M72.5 140.5L57.5 154.5L93 191H114.5V185L72.5 140.5Z" fill="#D9D9D9"/>
<path d="M653.5 202.5L639.5 189L681 149L699.5 167L663.5 202.5H653.5Z" fill="#D9D9D9"/>
</g>
<rect id="stair_4" x="198" y="78" width="27" height="40" fill="#D9D9D9"/>
<rect id="stair_5" x="535" y="85" width="25" height="41" fill="#D9D9D9"/>
<rect id="stair_7" x="366" y="143" width="28" height="58" fill="#D9D9D9"/>
<rect id="stair_1" x="361" y="466" width="29" height="63" fill="#D9D9D9"/>
<rect id="stair_8" x="534" y="553" width="28" height="46" fill="#D9D9D9"/>
<rect id="stair_2" x="183" y="550" width="30" height="49" fill="#D9D9D9"/>
<rect id="stair_3" x="162" y="351" width="28" height="53" fill="#D9D9D9"/>
<rect id="stair_6" x="561" y="358" width="28" height="54" fill="#D9D9D9"/>
</g>
<defs>
<clipPath id="clip0_0_4">
<rect width="765" height="990" fill="white"/>
</clipPath>
</defs>
</svg>
